<?xml version="1.0" standalone="no"?>
<!DOCTYPE svg PUBLIC "-//W3C//DTD SVG 1.1//EN" "http://www.w3.org/Graphics/SVG/1.1/DTD/svg11.dtd" >
<svg xmlns="http://www.w3.org/2000/svg" xmlns:xlink="http://www.w3.org/1999/xlink" version="1.1">
<metadata>
Created by FontForge 20170924 at Thu Mar  5 15:54:56 2020
 By www-data
Copyright \(c\) 2015 by Colophon Foundry. All rights reserved.
</metadata>
<defs>
<font id="BasisGrotesqueArabicTrial-Medium" horiz-adv-x="0" >
  <font-face 
    font-family="Basis Grotesque Arabic Trial Medium"
    font-weight="500"
    font-stretch="normal"
    units-per-em="1000"
    panose-1="2 11 6 3 3 6 4 4 1 3"
    ascent="800"
    descent="-200"
    x-height="496"
    cap-height="700"
    bbox="-42 -436 1363 928"
    underline-thickness="50"
    underline-position="-100"
    stemh="95"
    stemv="103"
    unicode-range="U+000D-FEFC"
  />
<missing-glyph horiz-adv-x="586" 
d="M60 0v700h466v-700h-466zM293 384l171 280h-342zM96 62l176 288l-176 288v-576zM490 62v576l-176 -288zM122 36h342l-171 280z" />
    <glyph glyph-name="fi" unicode="fi" horiz-adv-x="566" 
d="M95 0v413h-74v83h74v81c0 111 64 173 165 173c19 0 40 -3 57 -10l-17 -91c-14 5 -24 7 -37 7c-38 0 -65 -24 -65 -75v-85h302v-496h-104v413h-198v-413h-103zM390 575v115h116v-115h-116z" />
    <glyph glyph-name="fl" unicode="fl" horiz-adv-x="568" 
d="M95 0v413h-74v83h74v81c0 111 64 173 165 173c19 0 40 -3 57 -10l-17 -91c-14 5 -24 7 -37 7c-38 0 -65 -24 -65 -75v-85h113v-83h-113v-413h-103zM398 0v700h103v-700h-103z" />
    <glyph glyph-name="uniFEFB" unicode="&#xfedf;&#xfe8e;" horiz-adv-x="650" arabic-form="isolated" 
d="M475 700h96v-700h-531v90h204l-65 437l96 14l67 -451h133v610z" />
    <glyph glyph-name="uniFEFC" unicode="&#xfee0;&#xfe8e;" horiz-adv-x="674" arabic-form="final" 
d="M571 184c0 -63 36 -94 103 -94v-90c-71 0 -114 23 -139 66c-37 -45 -103 -66 -204 -66h-291v90h204l-65 437l96 14l67 -451c107 2 133 26 133 104v506h96v-516z" />
    <glyph glyph-name="uniFEF7" unicode="&#xfedf;&#xfe84;" horiz-adv-x="650" arabic-form="isolated" 
d="M143 587l-13 52l30 6c-15 14 -24 33 -24 53c0 48 35 81 83 81c37 0 64 -18 81 -45l-35 -29c-11 14 -25 23 -44 23s-32 -14 -32 -33c0 -24 27 -41 78 -31l39 8v-54zM475 700h96v-700h-531v90h204l-65 437l96 14l67 -451h133v610z" />
    <glyph glyph-name="uniFEF8" unicode="&#xfee0;&#xfe84;" horiz-adv-x="674" arabic-form="final" 
d="M143 587l-14 52l30 6c-14 14 -23 34 -23 53c0 48 35 81 82 81c37 0 64 -18 81 -45l-35 -29c-11 14 -25 23 -44 23c-18 0 -32 -14 -32 -33c0 -24 28 -41 78 -31l39 8v-54zM571 184c0 -63 36 -94 103 -94v-90c-71 0 -114 23 -139 66c-37 -45 -103 -66 -204 -66h-291v90h204
l-65 437l96 14l67 -451c107 2 133 26 133 104v506h96v-516z" />
    <glyph glyph-name="uniFEF9" unicode="&#xfedf;&#xfe88;" horiz-adv-x="650" arabic-form="isolated" 
d="M475 700h96v-700h-531v90h204l-65 437l96 14l67 -451h133v610zM250 -139c0 -24 27 -41 78 -30l39 7v-53l-163 -32l-14 52l31 6c-15 14 -24 33 -24 53c0 48 35 82 82 82c37 0 65 -18 82 -46l-36 -29c-11 14 -25 23 -43 23c-19 0 -32 -13 -32 -33z" />
    <glyph glyph-name="uniFEFA" unicode="&#xfee0;&#xfe88;" horiz-adv-x="674" arabic-form="final" 
d="M571 184c0 -63 36 -94 103 -94v-90c-71 0 -114 23 -139 66c-37 -45 -103 -66 -204 -66h-291v90h204l-65 437l96 14l67 -451c107 2 133 26 133 104v506h96v-516zM249 -139c0 -24 27 -41 78 -30l39 7v-53l-163 -32l-13 52l30 6c-15 14 -24 33 -24 53c0 48 35 82 83 82
c37 0 64 -18 81 -46l-35 -29c-11 14 -25 23 -44 23s-32 -13 -32 -33z" />
    <glyph glyph-name="uniFEF5" unicode="&#xfedf;&#xfe82;" horiz-adv-x="650" arabic-form="isolated" 
d="M475 700h96v-700h-531v90h204l-65 437l96 14l67 -451h133v610zM144 648c-16 0 -31 -12 -43 -33l-43 23c18 37 51 60 86 60c47 0 88 -40 127 -40c18 0 29 9 39 24l40 -23c-19 -34 -45 -51 -79 -51c-50 0 -102 40 -127 40z" />
    <glyph glyph-name="uniFEF6" unicode="&#xfee0;&#xfe82;" horiz-adv-x="674" arabic-form="final" 
d="M571 184c0 -63 36 -94 103 -94v-90c-71 0 -114 23 -139 66c-37 -45 -103 -66 -204 -66h-291v90h204l-65 437l96 14l67 -451c107 2 133 26 133 104v506h96v-516zM143 648c-16 0 -31 -12 -43 -33l-43 23c19 37 51 60 86 60c48 0 89 -40 127 -40c18 0 29 9 40 24l40 -23
c-20 -34 -46 -51 -80 -51c-49 0 -101 40 -127 40z" />
    <glyph glyph-name="uni06440671" unicode="&#xfedf;&#xfb51;" horiz-adv-x="650" 
d="M339 694c0 -55 -47 -84 -130 -83c-30 1 -58 3 -86 6l5 47c11 -1 22 -3 34 -4c27 66 65 103 108 103c40 0 69 -29 69 -69zM270 716c-19 0 -40 -20 -59 -58c58 0 81 13 81 36c0 14 -8 22 -22 22zM475 700h96v-700h-531v90h204l-65 437l96 14l67 -451h133v610z" />
    <glyph glyph-name="uni06440671.fina" unicode="&#xfee0;&#xfb51;" horiz-adv-x="674" 
d="M339 694c0 -55 -47 -84 -130 -83c-30 1 -58 3 -86 6l5 47c11 -1 22 -3 34 -4c27 66 65 103 108 103c40 0 69 -29 69 -69zM270 716c-19 0 -40 -20 -59 -58c58 0 81 13 81 36c0 14 -8 22 -22 22zM571 184c0 -63 36 -94 103 -94v-90c-71 0 -114 23 -139 66
c-37 -45 -103 -66 -204 -66h-291v90h204l-65 437l96 14l67 -451c107 2 133 26 133 104v506h96v-516z" />
    <glyph glyph-name="uniFE8E" unicode="&#x627;" horiz-adv-x="279" arabic-form="final" 
d="M262 0c-122 0 -184 57 -184 179v521h97v-517c0 -57 23 -93 87 -93h17v-90h-17z" />
    <glyph glyph-name="uniFE84" unicode="&#x623;" horiz-adv-x="279" arabic-form="final" 
d="M212 738v-54l-162 -31l-14 52l30 6c-14 14 -23 34 -23 53c0 48 35 81 82 81c37 0 64 -18 81 -45l-35 -29c-11 14 -25 23 -44 23c-18 0 -32 -14 -32 -33c0 -24 28 -41 78 -31zM262 90h17v-90h-17c-122 0 -184 57 -184 179v421h97v-417c0 -57 23 -93 87 -93z" />
    <glyph glyph-name="uniFE88" unicode="&#x625;" horiz-adv-x="279" arabic-form="final" 
d="M262 90h17v-90h-17c-122 0 -184 57 -184 179v521h97v-517c0 -57 23 -93 87 -93zM139 -139c0 -24 27 -41 78 -30l39 7v-53l-163 -32l-14 52l31 6c-15 14 -24 33 -24 53c0 48 35 82 82 82c37 0 65 -18 82 -46l-36 -29c-11 14 -25 23 -43 23c-19 0 -32 -13 -32 -33z" />
    <glyph glyph-name="uniFE82" unicode="&#x622;" horiz-adv-x="279" arabic-form="final" 
d="M217 748l40 -23c-20 -34 -46 -51 -80 -51c-49 0 -101 40 -127 40c-16 0 -31 -12 -43 -33l-43 23c19 37 51 60 86 60c48 0 89 -40 127 -40c18 0 29 9 40 24zM262 0c-122 0 -184 57 -184 179v421h97v-417c0 -57 23 -93 87 -93h17v-90h-17z" />
    <glyph glyph-name="uniFB51" unicode="&#x671;" horiz-adv-x="279" arabic-form="final" 
d="M246 760c0 -55 -47 -84 -130 -83c-30 1 -58 3 -86 6l5 47c11 -1 22 -3 34 -4c27 66 65 103 108 103c40 0 69 -29 69 -69zM177 782c-19 0 -40 -20 -59 -58c58 0 81 13 81 36c0 14 -8 22 -22 22zM262 90h17v-90h-17c-122 0 -184 57 -184 179v421h97v-417
c0 -57 23 -93 87 -93z" />
    <glyph glyph-name="uni066E.init" unicode="&#x66e;" horiz-adv-x="319" 
d="M144 433h97v-433h-241c-11 0 -15 15 -15 45s4 45 15 45h144v343z" />
    <glyph glyph-name="uni066E.medi" unicode="&#x66e;" horiz-adv-x="354" 
d="M251 184c0 -63 35 -94 103 -94v-90c-71 0 -114 22 -139 65c-32 -42 -84 -65 -151 -65h-64c-11 0 -15 15 -15 45s4 45 15 45h64c62 0 90 29 90 94v249h97v-249z" />
    <glyph glyph-name="uni066E.fina" unicode="&#x66e;" horiz-adv-x="878" 
d="M795 184c0 -63 35 -94 103 -94v-90c-71 0 -114 22 -139 65c-32 -42 -84 -65 -151 -65h-237c-229 0 -341 70 -341 221c0 37 7 78 20 123l92 -23c-10 -37 -15 -70 -15 -100c0 -93 64 -131 244 -131h237c62 0 90 29 90 94v249h97v-249z" />
    <glyph glyph-name="uniFE90" unicode="&#x628;" horiz-adv-x="878" arabic-form="final" 
d="M795 184c0 -63 35 -94 103 -94v-90c-71 0 -114 22 -139 65c-32 -42 -84 -65 -151 -65h-237c-229 0 -341 70 -341 221c0 37 7 78 20 123l92 -23c-10 -37 -15 -70 -15 -100c0 -93 64 -131 244 -131h237c62 0 90 29 90 94v249h97v-249zM350 -127l70 72l71 -72l-71 -70z" />
    <glyph glyph-name="uniFE92" unicode="&#x628;" horiz-adv-x="354" arabic-form="medial" 
d="M251 184c0 -63 35 -94 103 -94v-90c-71 0 -114 22 -139 65c-32 -42 -84 -65 -151 -65h-64c-11 0 -15 15 -15 45s4 45 15 45h64c62 0 90 29 90 94v249h97v-249zM134 -127l70 72l71 -72l-71 -70z" />
    <glyph glyph-name="uniFE91" unicode="&#x628;" horiz-adv-x="319" arabic-form="initial" 
d="M144 433h97v-433h-241c-11 0 -15 15 -15 45s4 45 15 45h144v343zM73 -127l70 72l71 -72l-71 -70z" />
    <glyph glyph-name="uniFB57" unicode="&#x67e;" horiz-adv-x="878" arabic-form="final" 
d="M795 184c0 -63 35 -94 103 -94v-90c-71 0 -114 22 -139 65c-32 -42 -84 -65 -151 -65h-237c-229 0 -341 70 -341 221c0 37 7 78 20 123l92 -23c-10 -37 -15 -70 -15 -100c0 -93 64 -131 244 -131h237c62 0 90 29 90 94v249h97v-249zM420 -119l63 64l70 -72l-70 -71
l-63 63l-63 -63l-71 71l71 72zM349 -263l71 71l70 -71l-70 -72z" />
    <glyph glyph-name="uniFB59" unicode="&#x67e;" horiz-adv-x="354" arabic-form="medial" 
d="M251 184c0 -63 35 -94 103 -94v-90c-71 0 -114 22 -139 65c-32 -42 -84 -65 -151 -65h-64c-11 0 -15 15 -15 45s4 45 15 45h64c62 0 90 29 90 94v249h97v-249zM205 -119l62 64l71 -72l-71 -71l-62 63l-63 -63l-71 71l71 72zM134 -263l71 71l70 -71l-71 -72z" />
    <glyph glyph-name="uniFB58" unicode="&#x67e;" horiz-adv-x="319" arabic-form="initial" 
d="M241 433v-433h-241c-11 0 -15 15 -15 45s4 45 15 45h144v343h97zM144 -135l-63 -63l-71 71l71 72l63 -64l63 64l70 -72l-70 -71zM73 -263l71 71l70 -71l-70 -72z" />
    <glyph glyph-name="uniFE96" unicode="&#x62a;" horiz-adv-x="878" arabic-form="final" 
d="M422 474l-63 -63l-71 71l71 71l63 -63l63 63l70 -71l-70 -71zM795 184c0 -63 35 -94 103 -94v-90c-71 0 -114 22 -139 65c-32 -42 -84 -65 -151 -65h-237c-229 0 -341 70 -341 221c0 37 7 78 20 123l92 -23c-10 -37 -15 -70 -15 -100c0 -93 64 -131 244 -131h237
c62 0 90 29 90 94v249h97v-249z" />
    <glyph glyph-name="uniFE98" unicode="&#x62a;" horiz-adv-x="354" arabic-form="medial" 
d="M205 584l-63 -63l-71 71l71 71l63 -63l63 63l70 -71l-70 -71zM251 184c0 -63 35 -94 103 -94v-90c-71 0 -114 22 -139 65c-32 -42 -84 -65 -151 -65h-64c-11 0 -15 15 -15 45s4 45 15 45h64c62 0 90 29 90 94v249h97v-249z" />
    <glyph glyph-name="uniFE97" unicode="&#x62a;" horiz-adv-x="319" arabic-form="initial" 
d="M257 663l70 -71l-70 -71l-63 63l-63 -63l-71 71l71 71l63 -63zM144 90v343h97v-433h-241c-11 0 -15 15 -15 45s4 45 15 45h144z" />
    <glyph glyph-name="uniFE9A" unicode="&#x62b;" horiz-adv-x="878" arabic-form="final" 
d="M492 604l-70 -70l-71 70l71 73zM422 474l-63 -63l-71 71l71 72l63 -64l63 64l70 -72l-70 -71zM795 184c0 -63 35 -94 103 -94v-90c-71 0 -114 22 -139 65c-32 -42 -84 -65 -151 -65h-237c-229 0 -341 70 -341 221c0 37 7 78 20 123l92 -23c-10 -37 -15 -70 -15 -100
c0 -93 64 -131 244 -131h237c62 0 90 29 90 94v249h97v-249z" />
    <glyph glyph-name="uniFE9C" unicode="&#x62b;" horiz-adv-x="354" arabic-form="medial" 
d="M275 714l-70 -70l-71 70l71 73zM205 584l-63 -63l-71 71l71 72l63 -64l63 64l70 -72l-70 -71zM251 184c0 -63 35 -94 103 -94v-90c-71 0 -114 22 -139 65c-32 -42 -84 -65 -151 -65h-64c-11 0 -15 15 -15 45s4 45 15 45h64c62 0 90 29 90 94v249h97v-249z" />
    <glyph glyph-name="uniFE9B" unicode="&#x62b;" horiz-adv-x="319" arabic-form="initial" 
d="M264 714l-70 -70l-71 70l71 73zM257 664l70 -72l-70 -71l-63 63l-63 -63l-71 71l71 72l63 -64zM144 90v343h97v-433h-241c-11 0 -15 15 -15 45s4 45 15 45h144z" />
    <glyph glyph-name="uniFE9E" unicode="&#x62c;" horiz-adv-x="648" arabic-form="final" 
d="M648 0c-124 0 -218 69 -229 223c-191 -69 -292 -160 -292 -268c0 -102 85 -170 218 -170c97 0 176 31 232 83l59 -64c-67 -69 -174 -109 -291 -109c-183 0 -315 107 -315 260c0 158 138 273 393 355c-115 37 -194 53 -247 53c-29 0 -45 -18 -45 -46c0 -14 3 -32 11 -52
l-90 -33c-11 31 -18 61 -18 85c0 81 57 136 139 136c86 0 215 -31 407 -98l-4 -86c-26 -6 -51 -13 -75 -20c5 -127 76 -159 147 -159v-90zM327 -79l-65 66l65 67l66 -67z" />
    <glyph glyph-name="uniFEA0" unicode="&#x62c;" horiz-adv-x="657" arabic-form="medial" 
d="M517 196c12 -73 53 -106 140 -106v-90c-124 0 -198 46 -222 142c-105 -66 -237 -141 -430 -142h-5c-11 0 -15 15 -15 45s4 45 15 45c170 0 280 66 388 131c34 21 67 43 100 59c-131 57 -219 83 -274 83c-43 0 -61 -16 -61 -48c0 -17 4 -35 10 -54l-90 -31
c-10 29 -17 60 -17 86c0 85 62 137 158 137c81 0 205 -40 391 -124l-14 -94c-25 -8 -48 -22 -74 -39zM227 -127l70 72l71 -72l-71 -70z" />
    <glyph glyph-name="uniFE9F" unicode="&#x62c;" horiz-adv-x="665" arabic-form="initial" 
d="M214 453c81 0 205 -40 391 -124l-14 -94c-47 -15 -87 -50 -151 -90c-106 -66 -239 -144 -435 -145h-5c-11 0 -15 15 -15 45s4 45 15 45c170 0 280 66 388 131c34 21 67 43 100 59c-131 57 -219 83 -274 83c-43 0 -61 -16 -61 -48c0 -17 4 -35 10 -54l-90 -31
c-10 29 -17 60 -17 86c0 85 62 137 158 137zM226 -127l71 72l71 -72l-71 -70z" />
    <glyph glyph-name="uniFB7B" unicode="&#x686;" horiz-adv-x="648" arabic-form="final" 
d="M648 0c-124 0 -218 69 -229 223c-191 -69 -292 -160 -292 -268c0 -102 85 -170 218 -170c97 0 176 31 232 83l59 -64c-67 -69 -174 -109 -291 -109c-183 0 -315 107 -315 260c0 158 138 273 393 355c-115 37 -194 53 -247 53c-29 0 -45 -18 -45 -46c0 -14 3 -32 11 -52
l-90 -33c-11 31 -18 61 -18 85c0 81 57 136 139 136c86 0 215 -31 407 -98l-4 -86c-26 -6 -51 -13 -75 -20c5 -127 76 -159 147 -159v-90zM380 80l56 -57l-56 -56l-52 53l-53 -53l-56 56l56 57l53 -53zM273 -85l55 57l56 -57l-57 -56z" />
    <glyph glyph-name="uniFB7D" unicode="&#x686;" horiz-adv-x="657" arabic-form="medial" 
d="M517 196c12 -73 53 -106 140 -106v-90c-124 0 -198 46 -222 142c-105 -66 -237 -141 -430 -142h-5c-11 0 -15 15 -15 45s4 45 15 45c170 0 280 66 388 131c34 21 67 43 100 59c-131 57 -219 83 -274 83c-43 0 -61 -16 -61 -48c0 -17 4 -35 10 -54l-90 -31
c-10 29 -17 60 -17 86c0 85 62 137 158 137c81 0 205 -40 391 -124l-14 -94c-25 -8 -48 -22 -74 -39zM297 -119l63 64l70 -72l-70 -71l-63 63l-63 -63l-71 71l71 72zM226 -263l71 71l70 -71l-70 -72z" />
    <glyph glyph-name="uniFB7C" unicode="&#x686;" horiz-adv-x="665" arabic-form="initial" 
d="M214 453c81 0 205 -40 391 -124l-14 -94c-47 -15 -87 -50 -151 -90c-106 -66 -239 -144 -435 -145h-5c-11 0 -15 15 -15 45s4 45 15 45c170 0 280 66 388 131c34 21 67 43 100 59c-131 57 -219 83 -274 83c-43 0 -61 -16 -61 -48c0 -17 4 -35 10 -54l-90 -31
c-10 29 -17 60 -17 86c0 85 62 137 158 137zM298 -119l63 64l70 -72l-70 -71l-63 63l-63 -63l-71 71l71 72zM227 -263l71 71l70 -71l-70 -72z" />
    <glyph glyph-name="uniFEA2" unicode="&#x62d;" horiz-adv-x="648" arabic-form="final" 
d="M419 223c-191 -69 -292 -160 -292 -268c0 -102 85 -170 218 -170c97 0 176 31 232 83l59 -64c-67 -69 -174 -109 -291 -109c-183 0 -315 107 -315 260c0 158 138 273 393 355c-115 37 -194 53 -247 53c-29 0 -45 -18 -45 -46c0 -14 3 -32 11 -52l-90 -33
c-11 31 -18 61 -18 85c0 81 57 136 139 136c86 0 215 -31 407 -98l-4 -86c-26 -6 -51 -13 -75 -20c5 -127 76 -159 147 -159v-90c-124 0 -218 69 -229 223z" />
    <glyph glyph-name="uniFEA4" unicode="&#x62d;" horiz-adv-x="657" arabic-form="medial" 
d="M517 196c12 -73 53 -106 140 -106v-90c-124 0 -198 46 -222 142c-105 -66 -237 -141 -430 -142h-5c-11 0 -15 15 -15 45s4 45 15 45c170 0 280 66 388 131c34 21 67 43 100 59c-131 57 -219 83 -274 83c-43 0 -61 -16 -61 -48c0 -17 4 -35 10 -54l-90 -31
c-10 29 -17 60 -17 86c0 85 62 137 158 137c81 0 205 -40 391 -124l-14 -94c-25 -8 -48 -22 -74 -39z" />
    <glyph glyph-name="uniFEA3" unicode="&#x62d;" horiz-adv-x="665" arabic-form="initial" 
d="M214 453c81 0 205 -40 391 -124l-14 -94c-47 -15 -87 -50 -151 -90c-106 -66 -239 -144 -435 -145h-5c-11 0 -15 15 -15 45s4 45 15 45c170 0 280 66 388 131c34 21 67 43 100 59c-131 57 -219 83 -274 83c-43 0 -61 -16 -61 -48c0 -17 4 -35 10 -54l-90 -31
c-10 29 -17 60 -17 86c0 85 62 137 158 137z" />
    <glyph glyph-name="uniFEA6" unicode="&#x62e;" horiz-adv-x="648" arabic-form="final" 
d="M408 610l-70 -71l-71 71l71 71zM419 223c-191 -69 -292 -160 -292 -268c0 -102 85 -170 218 -170c97 0 176 31 232 83l59 -64c-67 -69 -174 -109 -291 -109c-183 0 -315 107 -315 260c0 158 138 273 393 355c-115 37 -194 53 -247 53c-29 0 -45 -18 -45 -46
c0 -14 3 -32 11 -52l-90 -33c-11 31 -18 61 -18 85c0 81 57 136 139 136c86 0 215 -31 407 -98l-4 -86c-26 -6 -51 -13 -75 -20c5 -127 76 -159 147 -159v-90c-124 0 -218 69 -229 223z" />
    <glyph glyph-name="uniFEA8" unicode="&#x62e;" horiz-adv-x="657" arabic-form="medial" 
d="M339 597l-71 -71l-70 71l70 71zM517 196c12 -73 53 -106 140 -106v-90c-124 0 -198 46 -222 142c-105 -66 -237 -141 -430 -142h-5c-11 0 -15 15 -15 45s4 45 15 45c170 0 280 66 388 131c34 21 67 43 100 59c-131 57 -219 83 -274 83c-43 0 -61 -16 -61 -48
c0 -17 4 -35 10 -54l-90 -31c-10 29 -17 60 -17 86c0 85 62 137 158 137c81 0 205 -40 391 -124l-14 -94c-25 -8 -48 -22 -74 -39z" />
    <glyph glyph-name="uniFEA7" unicode="&#x62e;" horiz-adv-x="665" arabic-form="initial" 
d="M340 597l-71 -71l-70 71l70 71zM214 453c81 0 205 -40 391 -124l-14 -94c-47 -15 -87 -50 -151 -90c-106 -66 -239 -144 -435 -145h-5c-11 0 -15 15 -15 45s4 45 15 45c170 0 280 66 388 131c34 21 67 43 100 59c-131 57 -219 83 -274 83c-43 0 -61 -16 -61 -48
c0 -17 4 -35 10 -54l-90 -31c-10 29 -17 60 -17 86c0 85 62 137 158 137z" />
    <glyph glyph-name="uniFEAA" unicode="&#x62f;" horiz-adv-x="550" arabic-form="final" 
d="M453 166c33 -62 43 -76 97 -76v-90c-65 0 -105 19 -137 56c-52 -36 -136 -56 -232 -56h-139v90h139c84 0 153 19 182 44l-168 319l86 41z" />
    <glyph glyph-name="uniFEAC" unicode="&#x630;" horiz-adv-x="550" arabic-form="final" 
d="M309 630l-71 -71l-70 71l70 71zM453 166c33 -62 43 -76 97 -76v-90c-65 0 -105 19 -137 56c-52 -36 -136 -56 -232 -56h-139v90h139c84 0 153 19 182 44l-168 319l86 41z" />
    <glyph glyph-name="uniFEAE" unicode="&#x631;" horiz-adv-x="367" arabic-form="final" 
d="M367 90v-90c-46 0 -79 9 -104 27c-10 -152 -89 -231 -245 -231v90c111 0 150 49 150 176v371h96v-249c0 -63 36 -94 103 -94z" />
    <glyph glyph-name="uniFEB0" unicode="&#x632;" horiz-adv-x="367" arabic-form="final" 
d="M287 590l-71 -71l-70 71l70 71zM367 90v-90c-46 0 -79 9 -104 27c-10 -152 -89 -231 -245 -231v90c111 0 150 49 150 176v371h96v-249c0 -63 36 -94 103 -94z" />
    <glyph glyph-name="uniFB8B" unicode="&#x698;" horiz-adv-x="367" arabic-form="final" 
d="M288 714l-70 -70l-71 70l71 73zM218 584l-63 -63l-71 71l71 72l63 -64l63 64l70 -72l-70 -71zM367 90v-90c-46 0 -79 9 -104 27c-10 -152 -89 -231 -245 -231v90c111 0 150 49 150 176v371h96v-249c0 -63 36 -94 103 -94z" />
    <glyph glyph-name="uniFEB2" unicode="&#x633;" horiz-adv-x="1229" arabic-form="final" 
d="M1123 127c21 -24 55 -37 106 -37v-90c-68 0 -112 20 -144 52c-30 -34 -75 -52 -131 -52c-55 0 -97 20 -124 51c-31 -34 -79 -51 -144 -51c-34 0 -62 7 -86 20c-18 -142 -120 -224 -282 -224c-171 0 -288 108 -288 268c0 82 27 169 77 249l81 -45
c-40 -66 -61 -136 -61 -204c0 -110 72 -178 191 -178c126 0 188 60 188 181v366h97v-259c0 -57 34 -84 83 -84c67 0 88 20 88 84v192h97v-192c0 -57 34 -84 83 -84c58 0 83 39 83 127c0 64 -11 127 -32 194l92 28c24 -77 37 -149 37 -222c0 -34 -4 -64 -11 -90z" />
    <glyph glyph-name="uniFEB4" unicode="&#x633;" horiz-adv-x="855" arabic-form="medial" 
d="M855 90v-90c-60 0 -102 15 -133 42c-29 -28 -70 -42 -120 -42c-55 0 -97 20 -124 51c-31 -34 -79 -51 -144 -51c-55 0 -97 20 -124 51c-31 -34 -79 -51 -144 -51h-66c-11 0 -15 15 -15 45s4 45 15 45h66c67 0 88 20 88 84v192h97v-192c0 -57 34 -84 83 -84
c67 0 88 20 88 84v192h97v-192c0 -57 34 -84 83 -84c58 0 83 39 83 127c0 64 -11 127 -32 194l92 28c24 -77 37 -149 37 -222c0 -41 -5 -76 -15 -105c21 -14 49 -22 88 -22z" />
    <glyph glyph-name="uniFEB3" unicode="&#x633;" horiz-adv-x="850" arabic-form="initial" 
d="M745 439c24 -77 37 -149 37 -222c0 -142 -64 -217 -180 -217c-55 0 -97 20 -124 51c-31 -34 -79 -51 -144 -51c-55 0 -97 20 -124 51c-31 -34 -79 -51 -144 -51h-66c-11 0 -15 15 -15 45s4 45 15 45h66c67 0 88 20 88 84v192h97v-192c0 -57 34 -84 83 -84
c67 0 88 20 88 84v192h97v-192c0 -57 34 -84 83 -84c58 0 83 39 83 127c0 64 -11 127 -32 194z" />
    <glyph glyph-name="uniFEB6" unicode="&#x634;" horiz-adv-x="1229" arabic-form="final" 
d="M895 647l-70 -70l-72 70l71 73zM824 517l-63 -63l-70 71l70 72l63 -64l63 64l71 -72l-71 -71zM1123 127c21 -24 55 -37 106 -37v-90c-68 0 -112 20 -144 52c-30 -34 -75 -52 -131 -52c-55 0 -97 20 -124 51c-31 -34 -79 -51 -144 -51c-34 0 -62 7 -86 20
c-18 -142 -120 -224 -282 -224c-171 0 -288 108 -288 268c0 82 27 169 77 249l81 -45c-40 -66 -61 -136 -61 -204c0 -110 72 -178 191 -178c126 0 188 60 188 181v366h97v-259c0 -57 34 -84 83 -84c67 0 88 20 88 84v192h97v-192c0 -57 34 -84 83 -84c58 0 83 39 83 127
c0 64 -11 127 -32 194l92 28c24 -77 37 -149 37 -222c0 -34 -4 -64 -11 -90z" />
    <glyph glyph-name="uniFEB8" unicode="&#x634;" horiz-adv-x="855" arabic-form="medial" 
d="M543 647l-70 -70l-71 70l71 73zM473 517l-63 -63l-71 71l71 72l63 -64l63 64l70 -72l-70 -71zM855 90v-90c-60 0 -102 15 -133 42c-29 -28 -70 -42 -120 -42c-55 0 -97 20 -124 51c-31 -34 -79 -51 -144 -51c-55 0 -97 20 -124 51c-31 -34 -79 -51 -144 -51h-66
c-11 0 -15 15 -15 45s4 45 15 45h66c67 0 88 20 88 84v192h97v-192c0 -57 34 -84 83 -84c67 0 88 20 88 84v192h97v-192c0 -57 34 -84 83 -84c58 0 83 39 83 127c0 64 -11 127 -32 194l92 28c24 -77 37 -149 37 -222c0 -41 -5 -76 -15 -105c21 -14 49 -22 88 -22z" />
    <glyph glyph-name="uniFEB7" unicode="&#x634;" horiz-adv-x="850" arabic-form="initial" 
d="M543 647l-70 -70l-72 70l71 73zM472 517l-63 -63l-70 71l70 72l63 -64l63 64l71 -72l-71 -71zM745 439c24 -77 37 -149 37 -222c0 -142 -64 -217 -180 -217c-55 0 -97 20 -124 51c-31 -34 -79 -51 -144 -51c-55 0 -97 20 -124 51c-31 -34 -79 -51 -144 -51h-66
c-11 0 -15 15 -15 45s4 45 15 45h66c67 0 88 20 88 84v192h97v-192c0 -57 34 -84 83 -84c67 0 88 20 88 84v192h97v-192c0 -57 34 -84 83 -84c58 0 83 39 83 127c0 64 -11 127 -32 194z" />
    <glyph glyph-name="uniFEBA" unicode="&#x635;" horiz-adv-x="1363" arabic-form="final" 
d="M1268 126c22 -29 52 -36 95 -36v-90c-65 0 -116 18 -147 55c-48 -37 -121 -55 -219 -55h-291c-46 0 -80 9 -105 27c-15 -146 -118 -231 -283 -231c-171 0 -288 108 -288 268c0 82 27 169 77 249l81 -45c-40 -66 -61 -136 -61 -204c0 -110 72 -178 191 -178
c126 0 188 60 188 181v366h97v-249c0 -50 22 -79 64 -90c111 223 243 339 392 339c133 0 221 -99 221 -235c0 -27 -4 -51 -12 -72zM997 90c137 0 187 33 187 108c0 84 -49 145 -125 145c-99 0 -197 -84 -287 -253h225z" />
    <glyph glyph-name="uniFEBC" unicode="&#x635;" horiz-adv-x="995" arabic-form="medial" 
d="M897 129c22 -32 54 -39 98 -39v-90c-66 0 -117 18 -149 57c-47 -38 -121 -57 -221 -57h-291c-71 0 -114 22 -139 65c-32 -42 -84 -65 -151 -65h-44c-11 0 -15 15 -15 45s4 45 15 45h44c62 0 90 29 90 94v182h97v-182c0 -50 22 -79 64 -90c111 223 243 339 392 339
c133 0 221 -99 221 -235c0 -25 -4 -48 -11 -69zM625 90c137 0 187 33 187 108c0 84 -49 145 -125 145c-99 0 -197 -84 -287 -253h225z" />
    <glyph glyph-name="uniFEBB" unicode="&#x635;" horiz-adv-x="977" arabic-form="initial" 
d="M687 433c133 0 221 -99 221 -235c0 -131 -96 -198 -283 -198h-291c-71 0 -114 22 -139 65c-32 -42 -84 -65 -151 -65h-44c-11 0 -15 15 -15 45s4 45 15 45h44c62 0 90 29 90 94v182h97v-182c0 -50 22 -79 64 -90c111 223 243 339 392 339zM625 90c137 0 187 33 187 108
c0 84 -49 145 -125 145c-99 0 -197 -84 -287 -253h225z" />
    <glyph glyph-name="uniFEBE" unicode="&#x636;" horiz-adv-x="1363" arabic-form="final" 
d="M1080 590l-70 -71l-71 71l71 71zM1268 126c22 -29 52 -36 95 -36v-90c-65 0 -116 18 -147 55c-48 -37 -121 -55 -219 -55h-291c-46 0 -80 9 -105 27c-15 -146 -118 -231 -283 -231c-171 0 -288 108 -288 268c0 82 27 169 77 249l81 -45c-40 -66 -61 -136 -61 -204
c0 -110 72 -178 191 -178c126 0 188 60 188 181v366h97v-249c0 -50 22 -79 64 -90c111 223 243 339 392 339c133 0 221 -99 221 -235c0 -27 -4 -51 -12 -72zM997 90c137 0 187 33 187 108c0 84 -49 145 -125 145c-99 0 -197 -84 -287 -253h225z" />
    <glyph glyph-name="uniFEC0" unicode="&#x636;" horiz-adv-x="995" arabic-form="medial" 
d="M708 590l-70 -71l-71 71l71 71zM897 129c22 -32 54 -39 98 -39v-90c-66 0 -117 18 -149 57c-47 -38 -121 -57 -221 -57h-291c-71 0 -114 22 -139 65c-32 -42 -84 -65 -151 -65h-44c-11 0 -15 15 -15 45s4 45 15 45h44c62 0 90 29 90 94v182h97v-182c0 -50 22 -79 64 -90
c111 223 243 339 392 339c133 0 221 -99 221 -235c0 -25 -4 -48 -11 -69zM625 90c137 0 187 33 187 108c0 84 -49 145 -125 145c-99 0 -197 -84 -287 -253h225z" />
    <glyph glyph-name="uniFEBF" unicode="&#x636;" horiz-adv-x="977" arabic-form="initial" 
d="M709 590l-71 -71l-70 71l70 71zM687 433c133 0 221 -99 221 -235c0 -131 -96 -198 -283 -198h-291c-71 0 -114 22 -139 65c-32 -42 -84 -65 -151 -65h-44c-11 0 -15 15 -15 45s4 45 15 45h44c62 0 90 29 90 94v182h97v-182c0 -50 22 -79 64 -90c111 223 243 339 392 339z
M625 90c137 0 187 33 187 108c0 84 -49 145 -125 145c-99 0 -197 -84 -287 -253h225z" />
    <glyph glyph-name="uniFEC2" unicode="&#x637;" horiz-adv-x="808" arabic-form="final" 
d="M714 124c22 -27 51 -34 94 -34v-90c-64 0 -116 17 -147 54c-47 -36 -120 -54 -217 -54h-414v90h82c19 39 39 74 59 107v503h97v-378c73 73 153 111 238 111c133 0 221 -100 221 -235c0 -27 -4 -52 -13 -74zM444 90c136 0 186 33 186 108c0 87 -50 145 -124 145
c-100 0 -197 -84 -287 -253h225z" />
    <glyph glyph-name="uniFEC4" unicode="&#x637;" horiz-adv-x="775" arabic-form="medial" 
d="M679 128c21 -31 52 -38 96 -38v-90c-66 0 -117 18 -148 56c-48 -37 -122 -56 -221 -56h-406c-11 0 -15 15 -15 45s4 45 15 45h75c19 39 39 75 59 107v503h97v-378c73 73 152 111 237 111c134 0 222 -100 222 -235c0 -26 -4 -49 -11 -70zM406 90c137 0 187 33 187 108
c0 87 -50 145 -125 145c-99 0 -197 -84 -287 -253h225z" />
    <glyph glyph-name="uniFEC3" unicode="&#x637;" horiz-adv-x="758" arabic-form="initial" 
d="M468 433c134 0 222 -100 222 -235c0 -131 -97 -198 -284 -198h-406c-11 0 -15 15 -15 45s4 45 15 45h75c19 39 39 75 59 107v503h97v-378c73 73 152 111 237 111zM406 90c137 0 187 33 187 108c0 87 -50 145 -125 145c-99 0 -197 -84 -287 -253h225z" />
    <glyph glyph-name="uniFEC6" unicode="&#x638;" horiz-adv-x="808" arabic-form="final" 
d="M714 124c22 -27 51 -34 94 -34v-90c-64 0 -116 17 -147 54c-47 -36 -120 -54 -217 -54h-414v90h82c19 39 39 74 59 107v503h97v-378c73 73 153 111 238 111c133 0 221 -100 221 -235c0 -27 -4 -52 -13 -74zM564 590l-71 -71l-70 71l70 71zM444 90c136 0 186 33 186 108
c0 87 -50 145 -124 145c-100 0 -197 -84 -287 -253h225z" />
    <glyph glyph-name="uniFEC8" unicode="&#x638;" horiz-adv-x="775" arabic-form="medial" 
d="M679 128c21 -31 52 -38 96 -38v-90c-66 0 -117 18 -148 56c-48 -37 -122 -56 -221 -56h-406c-11 0 -15 15 -15 45s4 45 15 45h75c19 39 39 75 59 107v503h97v-378c73 73 152 111 237 111c134 0 222 -100 222 -235c0 -26 -4 -49 -11 -70zM526 590l-70 -71l-71 71l71 71z
M406 90c137 0 187 33 187 108c0 87 -50 145 -125 145c-99 0 -197 -84 -287 -253h225z" />
    <glyph glyph-name="uniFEC7" unicode="&#x638;" horiz-adv-x="758" arabic-form="initial" 
d="M468 433c134 0 222 -100 222 -235c0 -131 -97 -198 -284 -198h-406c-11 0 -15 15 -15 45s4 45 15 45h75c19 39 39 75 59 107v503h97v-378c73 73 152 111 237 111zM526 590l-71 -71l-70 71l70 71zM406 90c137 0 187 33 187 108c0 87 -50 145 -125 145
c-99 0 -197 -84 -287 -253h225z" />
    <glyph glyph-name="uniFECA" unicode="&#x639;" horiz-adv-x="598" arabic-form="final" 
d="M561 -140l57 -62c-68 -65 -173 -103 -286 -103c-183 0 -302 73 -302 198c0 103 60 170 209 234c-11 11 -22 23 -32 34c-31 34 -63 69 -105 102v110c63 49 150 80 229 80c133 0 207 -60 207 -159c0 -71 -39 -133 -112 -182c42 -15 96 -22 172 -22v-90
c-137 0 -220 25 -281 63c-147 -60 -190 -104 -190 -170c0 -67 75 -108 205 -108c95 0 174 31 229 75zM182 316c40 -32 70 -65 96 -94c20 -22 38 -41 57 -58c70 36 106 81 106 130c0 42 -40 69 -110 69c-50 0 -104 -17 -149 -47z" />
    <glyph glyph-name="uniFECC" unicode="&#x639;" horiz-adv-x="559" arabic-form="medial" 
d="M559 0c-126 0 -208 23 -268 57c-82 -35 -182 -56 -286 -57h-5c-11 0 -15 15 -15 45s4 45 15 45c73 0 145 12 207 33c-11 11 -21 22 -31 34c-32 36 -71 74 -116 108v106c63 51 153 82 232 82c135 0 207 -62 207 -159c0 -69 -42 -132 -110 -182c42 -14 96 -22 170 -22v-90z
M248 217c18 -20 34 -38 52 -53c62 36 102 82 102 130c0 43 -41 69 -110 69c-49 0 -111 -16 -153 -46c41 -35 82 -70 109 -100z" />
    <glyph glyph-name="uniFECB" unicode="&#x639;" horiz-adv-x="553" arabic-form="initial" 
d="M355 90h131v-90h-486c-11 0 -15 15 -15 45s4 45 15 45h123c-34 39 -53 88 -53 145c0 123 93 218 216 218c98 0 177 -59 199 -151l-93 -21c-13 52 -55 82 -108 82c-70 0 -117 -55 -117 -128c0 -90 69 -145 188 -145z" />
    <glyph glyph-name="uniFECE" unicode="&#x63a;" horiz-adv-x="598" arabic-form="final" 
d="M402 610l-71 -71l-70 71l70 71zM561 -140l57 -62c-68 -65 -173 -103 -286 -103c-183 0 -302 73 -302 198c0 103 60 170 209 234c-11 11 -22 23 -32 34c-31 34 -63 69 -105 102v110c63 49 150 80 229 80c133 0 207 -60 207 -159c0 -71 -39 -133 -112 -182
c42 -15 96 -22 172 -22v-90c-137 0 -220 25 -281 63c-147 -60 -190 -104 -190 -170c0 -67 75 -108 205 -108c95 0 174 31 229 75zM182 316c40 -32 70 -65 96 -94c20 -22 38 -41 57 -58c70 36 106 81 106 130c0 42 -40 69 -110 69c-50 0 -104 -17 -149 -47z" />
    <glyph glyph-name="uniFED0" unicode="&#x63a;" horiz-adv-x="559" arabic-form="medial" 
d="M363 610l-71 -71l-70 71l70 71zM559 0c-126 0 -208 23 -268 57c-82 -35 -182 -56 -286 -57h-5c-11 0 -15 15 -15 45s4 45 15 45c73 0 145 12 207 33c-11 11 -21 22 -31 34c-32 36 -71 74 -116 108v106c63 51 153 82 232 82c135 0 207 -62 207 -159
c0 -69 -42 -132 -110 -182c42 -14 96 -22 170 -22v-90zM248 217c18 -20 34 -38 52 -53c62 36 102 82 102 130c0 43 -41 69 -110 69c-49 0 -111 -16 -153 -46c41 -35 82 -70 109 -100z" />
    <glyph glyph-name="uniFECF" unicode="&#x63a;" horiz-adv-x="553" arabic-form="initial" 
d="M358 610l-71 -71l-70 71l70 71zM355 90h131v-90h-486c-11 0 -15 15 -15 45s4 45 15 45h123c-34 39 -53 88 -53 145c0 123 93 218 216 218c98 0 177 -59 199 -151l-93 -21c-13 52 -55 82 -108 82c-70 0 -117 -55 -117 -128c0 -90 69 -145 188 -145z" />
    <glyph glyph-name="uniFED2" unicode="&#x641;" horiz-adv-x="907" arabic-form="final" 
d="M730 610l-71 -71l-70 71l70 71zM907 0c-98 0 -183 13 -252 38c-66 -23 -147 -36 -239 -38h-45c-229 0 -341 70 -341 221c0 37 7 78 20 123l92 -23c-10 -37 -15 -70 -15 -100c0 -93 64 -131 244 -131h28c54 0 103 3 146 10c-49 42 -76 95 -76 158c0 109 80 195 190 195
c108 0 188 -86 188 -195c0 -63 -28 -117 -79 -159c41 -6 87 -9 139 -9v-90zM566 258c0 -57 32 -99 90 -127c60 28 94 70 94 127c0 60 -38 105 -91 105c-54 0 -93 -45 -93 -105z" />
    <glyph glyph-name="uniFED4" unicode="&#x641;" horiz-adv-x="508" arabic-form="medial" 
d="M331 610l-71 -71l-71 71l71 71zM508 0c-98 0 -184 13 -252 38c-69 -24 -154 -38 -251 -38h-5c-11 0 -15 15 -15 45s4 45 15 45c54 0 103 3 146 10c-49 42 -76 95 -76 158c0 109 80 195 189 195s189 -86 189 -195c0 -63 -28 -117 -79 -158c41 -7 87 -10 139 -10v-90z
M167 258c0 -57 32 -99 90 -127c60 28 94 70 94 127c0 60 -39 105 -92 105c-54 0 -92 -45 -92 -105z" />
    <glyph glyph-name="uniFED3" unicode="&#x641;" horiz-adv-x="534" arabic-form="initial" 
d="M332 668l-71 -71l-70 71l70 71zM260 511c134 0 206 -110 206 -282c0 -173 -68 -229 -268 -229h-198c-11 0 -15 15 -15 45s4 45 15 45h198c109 0 151 14 165 61c-24 -6 -50 -11 -81 -11c-134 0 -212 51 -212 167c0 114 81 204 190 204zM167 307c0 -52 35 -84 115 -84
c32 0 55 3 87 11c-5 129 -42 187 -109 187c-54 0 -93 -49 -93 -114z" />
    <glyph glyph-name="uniFB6B" unicode="&#x6a4;" horiz-adv-x="907" arabic-form="final" 
d="M731 734l-70 -70l-71 70l71 73zM661 604l-63 -63l-71 71l71 72l63 -64l63 64l70 -72l-70 -71zM907 0c-98 0 -183 13 -252 38c-66 -23 -147 -36 -239 -38h-45c-229 0 -341 70 -341 221c0 37 7 78 20 123l92 -23c-10 -37 -15 -70 -15 -100c0 -93 64 -131 244 -131h28
c54 0 103 3 146 10c-49 42 -76 95 -76 158c0 109 80 195 190 195c108 0 188 -86 188 -195c0 -63 -28 -117 -79 -159c41 -6 87 -9 139 -9v-90zM566 258c0 -57 32 -99 90 -127c60 28 94 70 94 127c0 60 -38 105 -91 105c-54 0 -93 -45 -93 -105z" />
    <glyph glyph-name="uniFB6D" unicode="&#x6a4;" horiz-adv-x="508" arabic-form="medial" 
d="M332 734l-70 -70l-71 70l71 73zM262 604l-63 -63l-71 71l71 72l63 -64l63 64l70 -72l-70 -71zM508 0c-98 0 -184 13 -252 38c-69 -24 -154 -38 -251 -38h-5c-11 0 -15 15 -15 45s4 45 15 45c54 0 103 3 146 10c-49 42 -76 95 -76 158c0 109 80 195 189 195
s189 -86 189 -195c0 -63 -28 -117 -79 -158c41 -7 87 -10 139 -10v-90zM167 258c0 -57 32 -99 90 -127c60 28 94 70 94 127c0 60 -39 105 -92 105c-54 0 -92 -45 -92 -105z" />
    <glyph glyph-name="uniFB6C" unicode="&#x6a4;" horiz-adv-x="534" arabic-form="initial" 
d="M332 792l-70 -70l-71 70l71 73zM262 662l-63 -63l-71 71l71 72l63 -64l63 64l70 -72l-70 -71zM260 511c134 0 206 -110 206 -282c0 -173 -68 -229 -268 -229h-198c-11 0 -15 15 -15 45s4 45 15 45h198c109 0 151 14 165 61c-24 -6 -50 -11 -81 -11
c-134 0 -212 51 -212 167c0 114 81 204 190 204zM167 307c0 -52 35 -84 115 -84c32 0 55 3 87 11c-5 129 -42 187 -109 187c-54 0 -93 -49 -93 -114z" />
    <glyph glyph-name="uni06A1.init" unicode="&#x6a1;" horiz-adv-x="534" 
d="M260 511c134 0 206 -110 206 -282c0 -173 -68 -229 -268 -229h-198c-11 0 -15 15 -15 45s4 45 15 45h198c109 0 151 14 165 61c-24 -6 -50 -11 -81 -11c-134 0 -212 51 -212 167c0 114 81 204 190 204zM167 307c0 -52 35 -84 115 -84c32 0 55 3 87 11
c-5 129 -42 187 -109 187c-54 0 -93 -49 -93 -114z" />
    <glyph glyph-name="uni06A1.medi" unicode="&#x6a1;" horiz-adv-x="508" 
d="M508 0c-98 0 -184 13 -252 38c-69 -24 -154 -38 -251 -38h-5c-11 0 -15 15 -15 45s4 45 15 45c54 0 103 3 146 10c-49 42 -76 95 -76 158c0 109 80 195 189 195s189 -86 189 -195c0 -63 -28 -117 -79 -158c41 -7 87 -10 139 -10v-90zM167 258c0 -57 32 -99 90 -127
c60 28 94 70 94 127c0 60 -39 105 -92 105c-54 0 -92 -45 -92 -105z" />
    <glyph glyph-name="uni06A1.fina" unicode="&#x6a1;" horiz-adv-x="907" 
d="M907 0c-98 0 -183 13 -252 38c-66 -23 -147 -36 -239 -38h-45c-229 0 -341 70 -341 221c0 37 7 78 20 123l92 -23c-10 -37 -15 -70 -15 -100c0 -93 64 -131 244 -131h28c54 0 103 3 146 10c-49 42 -76 95 -76 158c0 109 80 195 190 195c108 0 188 -86 188 -195
c0 -63 -28 -117 -79 -159c41 -6 87 -9 139 -9v-90zM566 258c0 -57 32 -99 90 -127c60 28 94 70 94 127c0 60 -38 105 -91 105c-54 0 -93 -45 -93 -105z" />
    <glyph glyph-name="uni066F.fina" unicode="&#x66f;" horiz-adv-x="762" 
d="M762 90v-90h-75c-38 -132 -149 -203 -321 -203c-213 0 -336 102 -336 284c0 69 18 150 54 233l87 -32c-28 -74 -44 -141 -44 -201c0 -130 78 -194 239 -194c116 0 187 36 219 113h-17c-171 0 -276 84 -276 220c0 120 84 213 198 213c138 0 212 -116 212 -318
c0 -8 0 -17 -1 -25h61zM568 90h36c1 8 1 16 1 25c0 149 -40 228 -115 228c-58 0 -101 -53 -101 -123c0 -85 60 -130 179 -130z" />
    <glyph glyph-name="uniFED6" unicode="&#x642;" horiz-adv-x="762" arabic-form="final" 
d="M493 584l-63 -63l-71 71l71 71l63 -63l63 63l70 -71l-70 -71zM762 90v-90h-75c-38 -132 -149 -203 -321 -203c-213 0 -336 102 -336 284c0 69 18 150 54 233l87 -32c-28 -74 -44 -141 -44 -201c0 -130 78 -194 239 -194c116 0 187 36 219 113h-17
c-171 0 -276 84 -276 220c0 120 84 213 198 213c138 0 212 -116 212 -318c0 -8 0 -17 -1 -25h61zM568 90h36c1 8 1 16 1 25c0 149 -40 228 -115 228c-58 0 -101 -53 -101 -123c0 -85 60 -130 179 -130z" />
    <glyph glyph-name="uniFED8" unicode="&#x642;" horiz-adv-x="508" arabic-form="medial" 
d="M262 604l-63 -63l-71 71l71 71l63 -63l63 63l70 -71l-70 -71zM508 0c-98 0 -184 13 -252 38c-69 -24 -154 -38 -251 -38h-5c-11 0 -15 15 -15 45s4 45 15 45c54 0 103 3 146 10c-49 42 -76 95 -76 158c0 109 80 195 189 195s189 -86 189 -195c0 -63 -28 -117 -79 -158
c41 -7 87 -10 139 -10v-90zM167 258c0 -57 32 -99 90 -127c60 28 94 70 94 127c0 60 -39 105 -92 105c-54 0 -92 -45 -92 -105z" />
    <glyph glyph-name="uniFED7" unicode="&#x642;" horiz-adv-x="534" arabic-form="initial" 
d="M262 662l-63 -63l-71 71l71 71l63 -63l63 63l70 -71l-70 -71zM260 511c134 0 206 -110 206 -282c0 -173 -68 -229 -268 -229h-198c-11 0 -15 15 -15 45s4 45 15 45h198c109 0 151 14 165 61c-24 -6 -50 -11 -81 -11c-134 0 -212 51 -212 167c0 114 81 204 190 204z
M167 307c0 -52 35 -84 115 -84c32 0 55 3 87 11c-5 129 -42 187 -109 187c-54 0 -93 -49 -93 -114z" />
    <glyph glyph-name="uniFEDA" unicode="&#x643;" horiz-adv-x="898" arabic-form="final" 
d="M795 184c0 -63 35 -94 103 -94v-90c-71 0 -114 22 -139 65c-32 -42 -84 -65 -151 -65h-237c-229 0 -341 70 -341 221c0 37 7 78 20 123l92 -23c-10 -37 -15 -70 -15 -100c0 -93 64 -131 244 -131h237c62 0 90 29 90 94v516h97v-516zM323 277l-15 56l35 7
c-16 17 -26 38 -26 61c0 54 40 91 91 91c42 0 73 -20 93 -51l-41 -33c-12 16 -28 27 -49 27c-22 0 -36 -15 -36 -37c0 -28 31 -47 88 -36l44 9v-59z" />
    <glyph glyph-name="uniFEDC" unicode="&#x643;" horiz-adv-x="475" arabic-form="medial" 
d="M475 90v-90c-60 0 -98 22 -147 69c-32 -45 -87 -69 -157 -69h-171c-11 0 -15 15 -15 45s4 45 15 45h171c47 0 78 12 98 42l-223 247v105l268 217l61 -70l-248 -200l220 -246c72 -79 91 -95 128 -95z" />
    <glyph glyph-name="uniFEDB" unicode="&#x643;" horiz-adv-x="402" arabic-form="initial" 
d="M224 347c92 -83 125 -133 125 -194c0 -103 -91 -153 -245 -153h-104c-11 0 -15 15 -15 45s4 45 15 45h104c108 0 149 22 149 63c0 30 -22 62 -93 127l-108 99v109l262 213l62 -70l-246 -198z" />
    <glyph glyph-name="uniFB8F" unicode="&#x6a9;" horiz-adv-x="881" arabic-form="final" 
d="M881 90v-90c-60 0 -98 22 -147 69c-32 -45 -87 -69 -157 -69h-206c-229 0 -341 70 -341 221c0 37 7 78 20 123l92 -23c-10 -37 -15 -70 -15 -100c0 -93 64 -131 244 -131h206c47 0 78 12 98 42l-223 247v105l268 217l61 -70l-248 -200l220 -246c72 -79 91 -95 128 -95z
" />
    <glyph glyph-name="uniFB91" unicode="&#x6a9;" horiz-adv-x="475" arabic-form="medial" 
d="M475 90v-90c-60 0 -98 22 -147 69c-32 -45 -87 -69 -157 -69h-171c-11 0 -15 15 -15 45s4 45 15 45h171c47 0 78 12 98 42l-223 247v105l268 217l61 -70l-248 -200l220 -246c72 -79 91 -95 128 -95z" />
    <glyph glyph-name="uniFB90" unicode="&#x6a9;" horiz-adv-x="402" arabic-form="initial" 
d="M224 347c92 -83 125 -133 125 -194c0 -103 -91 -153 -245 -153h-104c-11 0 -15 15 -15 45s4 45 15 45h104c108 0 149 22 149 63c0 30 -22 62 -93 127l-108 99v109l262 213l62 -70l-246 -198z" />
    <glyph glyph-name="uniFB93" unicode="&#x6af;" horiz-adv-x="881" arabic-form="final" 
d="M689 735l-259 -208l-41 50l257 208zM881 90v-90c-60 0 -98 22 -147 69c-32 -45 -87 -69 -157 -69h-206c-229 0 -341 70 -341 221c0 37 7 78 20 123l92 -23c-10 -37 -15 -70 -15 -100c0 -93 64 -131 244 -131h206c47 0 78 12 98 42l-223 247v105l268 217l61 -70l-248 -200
l220 -246c72 -79 91 -95 128 -95z" />
    <glyph glyph-name="uniFB95" unicode="&#x6af;" horiz-adv-x="475" arabic-form="medial" 
d="M284 735l-258 -208l-42 50l258 208zM475 90v-90c-60 0 -98 22 -147 69c-32 -45 -87 -69 -157 -69h-171c-11 0 -15 15 -15 45s4 45 15 45h171c47 0 78 12 98 42l-223 247v105l268 217l61 -70l-248 -200l220 -246c72 -79 91 -95 128 -95z" />
    <glyph glyph-name="uniFB94" unicode="&#x6af;" horiz-adv-x="402" arabic-form="initial" 
d="M284 735l-258 -208l-42 50l258 208zM224 347c92 -83 125 -133 125 -194c0 -103 -91 -153 -245 -153h-104c-11 0 -15 15 -15 45s4 45 15 45h104c108 0 149 22 149 63c0 30 -22 62 -93 127l-108 99v109l262 213l62 -70l-246 -198z" />
    <glyph glyph-name="uniFEDE" unicode="&#x644;" horiz-adv-x="706" arabic-form="final" 
d="M706 90v-90c-46 0 -80 9 -105 27c-15 -146 -118 -231 -283 -231c-171 0 -288 108 -288 268c0 82 27 169 77 249l81 -45c-40 -66 -61 -136 -61 -204c0 -110 72 -178 191 -178c126 0 188 60 188 181v633h97v-516c0 -63 36 -94 103 -94z" />
    <glyph glyph-name="uniFEE0" unicode="&#x644;" horiz-adv-x="340" arabic-form="medial" 
d="M237 184c0 -63 36 -94 103 -94v-90c-71 0 -113 22 -138 65c-32 -42 -84 -65 -151 -65h-51c-11 0 -15 15 -15 45s4 45 15 45h51c62 0 90 29 90 94v516h96v-516z" />
    <glyph glyph-name="uniFEDF" unicode="&#x644;" horiz-adv-x="306" arabic-form="initial" 
d="M131 700h96v-700h-227c-11 0 -15 15 -15 45s4 45 15 45h131v610z" />
    <glyph glyph-name="uniFEE2" unicode="&#x645;" horiz-adv-x="706" arabic-form="final" 
d="M630 164c21 -61 38 -74 76 -74v-90c-63 0 -105 23 -134 66c-38 -45 -94 -73 -156 -73c-82 0 -155 35 -204 97c-12 -15 -25 -28 -36 -39c-38 -39 -53 -60 -53 -106v-250h-96v250c0 74 27 115 80 169c27 27 40 42 51 66l35 79c48 109 120 174 204 174
c89 0 157 -61 194 -163zM416 83c48 0 89 27 113 79l-28 77c-26 70 -62 104 -103 104c-40 0 -82 -42 -117 -120l-22 -51c38 -60 93 -89 157 -89z" />
    <glyph glyph-name="uniFEE4" unicode="&#x645;" horiz-adv-x="653" arabic-form="medial" 
d="M570 165c24 -63 46 -75 83 -75v-90c-68 0 -110 23 -140 67c-38 -46 -94 -74 -156 -74c-82 0 -154 35 -203 95c-42 -64 -82 -87 -149 -88h-5c-11 0 -15 15 -15 45s4 45 15 45c35 0 57 10 110 115l25 50c58 116 124 178 205 178c89 0 151 -61 192 -169zM357 83
c48 0 87 26 112 77l-28 72c-28 77 -63 111 -103 111s-72 -39 -117 -129l-21 -43c38 -59 93 -88 157 -88z" />
    <glyph glyph-name="uniFEE3" unicode="&#x645;" horiz-adv-x="610" arabic-form="initial" 
d="M349 433c116 0 193 -97 193 -235c0 -118 -78 -198 -193 -198c-75 0 -137 31 -187 94c-43 -65 -91 -93 -157 -94h-5c-11 0 -15 15 -15 45s4 45 15 45c46 0 73 26 117 125l21 46c55 121 117 172 211 172zM349 90c61 0 96 40 96 108c0 94 -38 145 -96 145
c-48 0 -81 -28 -122 -120l-21 -46c0 -1 -1 -1 -1 -2c44 -62 89 -85 144 -85z" />
    <glyph glyph-name="uniFEE6" unicode="&#x646;" horiz-adv-x="706" arabic-form="final" 
d="M406 499l-71 -71l-70 71l70 71zM706 90v-90c-46 0 -80 9 -105 27c-15 -146 -118 -231 -283 -231c-171 0 -288 108 -288 268c0 82 27 169 77 249l81 -45c-40 -66 -61 -136 -61 -204c0 -110 72 -178 191 -178c126 0 188 60 188 181v366h97v-249c0 -63 35 -94 103 -94z" />
    <glyph glyph-name="uniFEE8" unicode="&#x646;" horiz-adv-x="354" arabic-form="medial" 
d="M274 590l-71 -71l-71 71l71 71zM251 184c0 -63 35 -94 103 -94v-90c-71 0 -114 22 -139 65c-32 -42 -84 -65 -151 -65h-64c-11 0 -15 15 -15 45s4 45 15 45h64c62 0 90 29 90 94v249h97v-249z" />
    <glyph glyph-name="uniFEE7" unicode="&#x646;" horiz-adv-x="319" arabic-form="initial" 
d="M264 590l-71 -71l-70 71l70 71zM144 90v343h97v-433h-241c-11 0 -15 15 -15 45s4 45 15 45h144z" />
    <glyph glyph-name="uniFB9F" unicode="&#x6ba;" horiz-adv-x="706" arabic-form="final" 
d="M706 90v-90c-46 0 -80 9 -105 27c-15 -146 -118 -231 -283 -231c-171 0 -288 108 -288 268c0 82 27 169 77 249l81 -45c-40 -66 -61 -136 -61 -204c0 -110 72 -178 191 -178c126 0 188 60 188 181v366h97v-249c0 -63 36 -94 103 -94z" />
    <glyph glyph-name="uniFEEA" unicode="&#x647;" horiz-adv-x="548" arabic-form="final" 
d="M531 90h17v-90h-17c-99 0 -160 27 -181 92c-38 -14 -79 -22 -123 -22c-114 0 -197 55 -197 155c0 121 122 213 311 258v86h97v-400c0 -51 29 -79 93 -79zM127 229c0 -41 37 -69 100 -69c41 0 76 8 114 27v202c-131 -35 -214 -95 -214 -160z" />
    <glyph glyph-name="uniFEEC" unicode="&#x647;" horiz-adv-x="535" arabic-form="medial" 
d="M535 90v-90h-52c11 -20 16 -42 16 -66c0 -93 -75 -158 -181 -158c-136 0 -224 85 -243 225c-22 -1 -46 -1 -70 -1h-5c-11 0 -15 15 -15 45s4 45 15 45c26 0 50 0 72 1c11 179 117 362 233 362c92 0 160 -100 160 -211c0 -66 -15 -116 -49 -152h119zM305 363
c-53 0 -124 -143 -135 -268c160 12 198 51 198 147c0 60 -29 121 -63 121zM318 -134c54 0 84 25 84 68c0 39 -35 75 -130 86c-29 -6 -63 -11 -100 -14c13 -92 64 -140 146 -140z" />
    <glyph glyph-name="uniFEEB" unicode="&#x647;" horiz-adv-x="656" arabic-form="initial" 
d="M67 457c325 -12 531 -118 531 -297c0 -101 -77 -162 -211 -162c-52 0 -102 9 -146 25c-49 -15 -109 -23 -177 -23h-64c-11 0 -15 15 -15 45s4 45 15 45h64c23 0 45 1 65 2c-37 37 -59 82 -59 132c0 57 22 106 57 139c-20 2 -41 3 -63 4zM160 229c0 -52 29 -91 78 -116
c56 22 85 60 85 118c0 56 -35 100 -84 100c-47 0 -79 -42 -79 -102zM387 83c84 0 114 29 114 81c0 53 -36 98 -101 132c8 -21 13 -44 13 -68c0 -58 -21 -107 -60 -144c11 -1 22 -1 34 -1z" />
    <glyph glyph-name="uniFE94" unicode="&#x629;" horiz-adv-x="548" arabic-form="final" 
d="M253 675l-63 -63l-71 71l71 71l63 -63l63 63l70 -71l-70 -71zM531 90h17v-90h-17c-99 0 -160 27 -181 92c-38 -14 -79 -22 -123 -22c-114 0 -197 55 -197 155c0 121 122 213 311 258v86h97v-400c0 -51 29 -79 93 -79zM127 229c0 -41 37 -69 100 -69c41 0 76 8 114 27v202
c-131 -35 -214 -95 -214 -160z" />
    <glyph glyph-name="uniFEEE" unicode="&#x648;" horiz-adv-x="533" arabic-form="final" 
d="M533 90v-90h-73c-35 -126 -132 -203 -270 -203c-50 0 -103 12 -153 33l34 83c43 -17 80 -26 119 -26c83 0 142 40 170 113h-20c-171 0 -276 84 -276 220c0 120 84 213 198 213c139 0 211 -118 211 -327v-16h60zM340 90h37v16c0 157 -41 237 -115 237
c-59 0 -102 -53 -102 -123c0 -85 61 -130 180 -130z" />
    <glyph glyph-name="uniFE86" unicode="&#x624;" horiz-adv-x="533" arabic-form="final" 
d="M151 502l-15 56l35 7c-16 17 -26 38 -26 61c0 54 40 91 91 91c42 0 73 -20 93 -51l-41 -33c-12 16 -28 27 -49 27c-22 0 -36 -15 -36 -37c0 -28 31 -47 88 -36l44 9v-59zM533 90v-90h-73c-35 -126 -132 -203 -270 -203c-50 0 -103 12 -153 33l34 83
c43 -17 80 -26 119 -26c83 0 142 40 170 113h-20c-171 0 -276 84 -276 220c0 120 84 213 198 213c139 0 211 -118 211 -327v-16h60zM340 90h37v16c0 157 -41 237 -115 237c-59 0 -102 -53 -102 -123c0 -85 61 -130 180 -130z" />
    <glyph glyph-name="uniFEF0" unicode="&#x649;" horiz-adv-x="743" arabic-form="final" 
d="M743 90v-90c-21 0 -39 2 -55 4c-17 -113 -170 -209 -355 -209c-190 0 -303 106 -303 275c0 67 18 144 54 228l87 -33c-29 -74 -44 -138 -44 -195c0 -119 69 -185 206 -185c143 0 259 71 259 139c0 12 -2 24 -7 34l-96 108l73 60l95 -108c20 -22 32 -27 86 -28z" />
    <glyph glyph-name="uniFEF2" unicode="&#x64a;" horiz-adv-x="743" arabic-form="final" 
d="M743 90v-90c-21 0 -39 2 -55 4c-17 -113 -170 -209 -355 -209c-190 0 -303 106 -303 275c0 67 18 144 54 228l87 -33c-29 -74 -44 -138 -44 -195c0 -119 69 -185 206 -185c143 0 259 71 259 139c0 12 -2 24 -7 34l-96 108l73 60l95 -108c20 -22 32 -27 86 -28zM332 -326
l66 66l72 -74l-73 -74l-65 66l-65 -66l-73 74l74 74z" />
    <glyph glyph-name="uniFEF4" unicode="&#x64a;" horiz-adv-x="354" arabic-form="medial" 
d="M251 184c0 -63 35 -94 103 -94v-90c-71 0 -114 22 -139 65c-32 -42 -84 -65 -151 -65h-64c-11 0 -15 15 -15 45s4 45 15 45h64c62 0 90 29 90 94v249h97v-249zM204 -121l65 66l73 -74l-73 -74l-65 66l-65 -66l-73 74l74 74z" />
    <glyph glyph-name="uniFEF3" unicode="&#x64a;" horiz-adv-x="319" arabic-form="initial" 
d="M241 0h-241c-11 0 -15 15 -15 45s4 45 15 45h144v343h97v-433zM281 -129l-73 -74l-65 66l-65 -66l-73 74l74 74l64 -66l66 66z" />
    <glyph glyph-name="uniFE8A" unicode="&#x626;" horiz-adv-x="743" arabic-form="final" 
d="M78 393l-15 56l35 7c-16 17 -26 38 -26 61c0 54 40 91 91 91c42 0 73 -20 93 -51l-41 -33c-12 16 -28 27 -49 27c-22 0 -36 -15 -36 -37c0 -28 31 -47 88 -36l44 9v-59zM743 90v-90c-21 0 -39 2 -55 4c-17 -113 -170 -209 -355 -209c-190 0 -303 106 -303 275
c0 67 18 144 54 228l87 -33c-29 -74 -44 -138 -44 -195c0 -119 69 -185 206 -185c143 0 259 71 259 139c0 12 -2 24 -7 34l-96 108l73 60l95 -108c20 -22 32 -27 86 -28z" />
    <glyph glyph-name="uniFE8C" unicode="&#x626;" horiz-adv-x="354" arabic-form="medial" 
d="M92 502l-15 56l35 7c-16 17 -26 38 -26 61c0 54 40 91 91 91c42 0 73 -20 93 -51l-41 -33c-12 16 -28 27 -49 27c-22 0 -36 -15 -36 -37c0 -28 31 -47 88 -36l44 9v-59zM251 184c0 -63 35 -94 103 -94v-90c-71 0 -114 22 -139 65c-32 -42 -84 -65 -151 -65h-64
c-11 0 -15 15 -15 45s4 45 15 45h64c62 0 90 29 90 94v249h97v-249z" />
    <glyph glyph-name="uniFE8B" unicode="&#x626;" horiz-adv-x="319" arabic-form="initial" 
d="M222 587l44 9v-59l-184 -35l-15 56l35 7c-16 17 -26 38 -26 61c0 54 40 91 91 91c42 0 73 -20 93 -51l-41 -33c-12 16 -28 27 -49 27c-22 0 -36 -15 -36 -37c0 -28 31 -47 88 -36zM144 90v343h97v-433h-241c-11 0 -15 15 -15 45s4 45 15 45h144z" />
    <glyph glyph-name="uniFBFE" unicode="&#x6cc;" horiz-adv-x="319" arabic-form="initial" 
d="M241 0h-241c-11 0 -15 15 -15 45s4 45 15 45h144v343h97v-433zM281 -129l-73 -74l-65 66l-65 -66l-73 74l74 74l64 -66l66 66z" />
    <glyph glyph-name="uniFBFF" unicode="&#x6cc;" horiz-adv-x="354" arabic-form="medial" 
d="M251 184c0 -63 35 -94 103 -94v-90c-71 0 -114 22 -139 65c-32 -42 -84 -65 -151 -65h-64c-11 0 -15 15 -15 45s4 45 15 45h64c62 0 90 29 90 94v249h97v-249zM204 -121l65 66l73 -74l-73 -74l-65 66l-65 -66l-73 74l74 74z" />
    <glyph glyph-name="uniFBFD" unicode="&#x6cc;" horiz-adv-x="743" arabic-form="final" 
d="M743 90v-90c-21 0 -39 2 -55 4c-17 -113 -170 -209 -355 -209c-190 0 -303 106 -303 275c0 67 18 144 54 228l87 -33c-29 -74 -44 -138 -44 -195c0 -119 69 -185 206 -185c143 0 259 71 259 139c0 12 -2 24 -7 34l-96 108l73 60l95 -108c20 -22 32 -27 86 -28z" />
    <glyph glyph-name=".notdef" horiz-adv-x="586" 
d="M60 0v700h466v-700h-466zM293 384l171 280h-342zM96 62l176 288l-176 288v-576zM490 62v576l-176 -288zM122 36h342l-171 280z" />
    <glyph glyph-name="NULL" 
 />
    <glyph glyph-name="CR" unicode="&#xd;" horiz-adv-x="289" 
 />
    <glyph glyph-name="space" unicode=" " horiz-adv-x="276" 
 />
    <glyph glyph-name="A" unicode="A" horiz-adv-x="680" 
d="M5 0l282 700h106l282 -700h-115l-76 194h-288l-76 -194h-115zM232 290h216l-86 221c-3 9 -13 37 -22 65c-9 -28 -19 -56 -22 -65z" />
    <glyph glyph-name="B" unicode="B" horiz-adv-x="649" 
d="M79 0v700h271c141 0 222 -67 222 -169c0 -79 -53 -130 -106 -153c74 -27 134 -77 134 -172c0 -128 -112 -206 -245 -206h-276zM187 418h156c78 0 124 28 124 94c0 65 -46 93 -124 93h-156v-187zM187 96h158c91 0 147 38 147 114c0 77 -56 113 -147 113h-158v-227z" />
    <glyph glyph-name="C" unicode="C" horiz-adv-x="757" 
d="M398 -14c-201 0 -349 151 -349 364s158 364 354 364c142 0 252 -75 300 -181l-86 -62c-50 99 -118 144 -217 144c-132 0 -241 -107 -241 -265c0 -155 103 -265 241 -265c98 0 171 48 222 145l84 -59c-77 -121 -157 -185 -308 -185z" />
    <glyph glyph-name="D" unicode="D" horiz-adv-x="698" 
d="M79 0v700h201c214 0 369 -122 369 -350s-155 -350 -369 -350h-201zM187 99h96c152 0 257 82 257 251s-105 251 -257 251h-96v-502z" />
    <glyph glyph-name="E" unicode="E" horiz-adv-x="601" 
d="M79 0v700h459v-96h-351v-194h323v-96h-323v-218h354v-96h-462z" />
    <glyph glyph-name="F" unicode="F" horiz-adv-x="604" 
d="M79 0v700h472v-96h-364v-214h334v-96h-334v-294h-108z" />
    <glyph glyph-name="G" unicode="G" horiz-adv-x="770" 
d="M390 -14c-195 0 -341 154 -341 364s161 364 354 364c136 0 245 -67 299 -171l-81 -59c-48 91 -124 135 -219 135c-131 0 -243 -107 -243 -269c0 -155 98 -265 234 -265c126 0 194 86 206 188h-235v89h343v-362h-71l-27 109c-42 -73 -113 -123 -219 -123z" />
    <glyph glyph-name="H" unicode="H" horiz-adv-x="704" 
d="M79 0v700h108v-294h330v294h108v-700h-108v308h-330v-308h-108z" />
    <glyph glyph-name="I" unicode="I" horiz-adv-x="265" 
d="M79 0v700h108v-700h-108z" />
    <glyph glyph-name="J" unicode="J" horiz-adv-x="543" 
d="M265 -14c-135 0 -220 83 -220 227l108 -12c0 -78 44 -116 112 -116c71 0 112 47 112 124v491h108v-492c0 -132 -83 -222 -220 -222z" />
    <glyph glyph-name="K" unicode="K" horiz-adv-x="636" 
d="M79 0v700h108v-294l60 66l216 228h136l-246 -259l264 -441h-126l-216 360l-88 -92v-268h-108z" />
    <glyph glyph-name="L" unicode="L" horiz-adv-x="583" 
d="M79 0v700h108v-601h354v-99h-462z" />
    <glyph glyph-name="M" unicode="M" horiz-adv-x="863" 
d="M79 0v700h115l237 -589l238 589h115v-700h-105v484c-9 -35 -24 -80 -34 -104l-160 -380h-107l-160 380c-10 23 -25 69 -35 104v-484h-104z" />
    <glyph glyph-name="N" unicode="N" horiz-adv-x="717" 
d="M79 0v700h110l315 -484s24 -40 30 -55v539h105v-700h-111l-315 486s-24 40 -30 55v-541h-104z" />
    <glyph glyph-name="O" unicode="O" horiz-adv-x="798" 
d="M399 -14c-199 0 -350 151 -350 364s151 364 350 364s350 -151 350 -364s-151 -364 -350 -364zM399 85c137 0 240 102 240 265s-103 265 -240 265s-240 -102 -240 -265s103 -265 240 -265z" />
    <glyph glyph-name="P" unicode="P" horiz-adv-x="683" 
d="M79 0v700h305c154 0 254 -82 254 -224s-100 -223 -254 -223h-197v-253h-108zM187 349h194c101 0 149 49 149 127c0 79 -48 128 -149 128h-194v-255z" />
    <glyph glyph-name="Q" unicode="Q" horiz-adv-x="798" 
d="M537 -156c-46 46 -84 97 -112 143c-8 -1 -17 -1 -26 -1c-199 0 -350 151 -350 364s151 364 350 364s350 -151 350 -364c0 -163 -88 -289 -218 -340c21 -33 52 -65 84 -96zM399 85c137 0 240 102 240 265s-103 265 -240 265s-240 -102 -240 -265s103 -265 240 -265z" />
    <glyph glyph-name="R" unicode="R" horiz-adv-x="647" 
d="M79 0v700h288c148 0 237 -80 237 -197c0 -105 -63 -171 -164 -200l172 -303h-122l-167 293h-136v-293h-108zM187 388h175c89 0 134 38 134 109c0 70 -45 108 -134 108h-175v-217z" />
    <glyph glyph-name="S" unicode="S" horiz-adv-x="648" 
d="M333 -14c-167 0 -260 96 -286 220l96 50c20 -109 79 -175 190 -175c93 0 150 49 150 112c0 73 -64 106 -180 128c-131 25 -224 87 -224 206c0 112 98 187 239 187c129 0 221 -62 261 -175l-86 -50c-29 84 -90 130 -176 130c-74 0 -135 -31 -135 -90
c0 -64 62 -98 182 -122c149 -31 227 -94 227 -208c0 -116 -100 -213 -258 -213z" />
    <glyph glyph-name="T" unicode="T" horiz-adv-x="571" 
d="M232 0v601h-215v99h538v-99h-215v-601h-108z" />
    <glyph glyph-name="U" unicode="U" horiz-adv-x="686" 
d="M343 -14c-160 0 -275 97 -275 269v445h108v-436c0 -113 67 -179 167 -179s167 66 167 179v436h108v-445c0 -172 -115 -269 -275 -269z" />
    <glyph glyph-name="V" unicode="V" horiz-adv-x="636" 
d="M262 0l-260 700h115l175 -488s15 -48 26 -85c11 37 26 85 26 85l175 488h115l-260 -700h-112z" />
    <glyph glyph-name="W" unicode="W" horiz-adv-x="918" 
d="M200 0l-195 700h112l125 -482s13 -51 18 -76c5 25 17 77 17 77l125 481h114l125 -481s12 -52 17 -77c5 25 18 76 18 76l125 482h112l-195 -700h-116l-143 550l-143 -550h-116z" />
    <glyph glyph-name="X" unicode="X" horiz-adv-x="594" 
d="M3 0l235 376l-203 324h117l145 -241l150 241h112l-201 -319l232 -381h-116l-177 291l-177 -291h-117z" />
    <glyph glyph-name="Y" unicode="Y" horiz-adv-x="576" 
d="M234 0v280l-230 420h118l144 -272c8 -16 15 -31 22 -49c7 18 14 33 22 49l144 272h118l-230 -420v-280h-108z" />
    <glyph glyph-name="Z" unicode="Z" horiz-adv-x="603" 
d="M37 0v97l384 504h-371v99h497v-99l-381 -502h398v-99h-527z" />
    <glyph glyph-name="a" unicode="a" horiz-adv-x="554" 
d="M212 -14c-99 0 -166 62 -166 154c0 99 81 148 173 162l158 25v20c0 57 -36 87 -103 87c-68 0 -104 -32 -104 -68c0 -5 0 -7 2 -13l-91 -31c-5 12 -8 27 -8 41c0 77 76 147 201 147c133 0 207 -60 207 -172v-215c0 -57 8 -86 32 -123h-105c-10 13 -27 42 -27 88
c-31 -64 -96 -102 -169 -102zM234 72c86 0 143 70 143 166v14l-135 -23c-61 -10 -95 -39 -95 -84c0 -46 35 -73 87 -73z" />
    <glyph glyph-name="b" unicode="b" horiz-adv-x="614" 
d="M338 -14c-80 0 -139 41 -167 87v-73h-104v700h104v-276c37 52 100 86 172 86c132 0 234 -103 234 -262s-106 -262 -239 -262zM317 81c90 0 154 69 154 167s-64 167 -154 167c-89 0 -154 -70 -154 -167s64 -167 154 -167z" />
    <glyph glyph-name="c" unicode="c" horiz-adv-x="549" 
d="M295 -14c-147 0 -258 106 -258 262s119 262 258 262c107 0 182 -44 218 -125l-85 -52c-32 60 -80 81 -133 81c-85 0 -152 -64 -152 -166s64 -166 152 -166c69 0 108 30 138 84l83 -51c-47 -80 -117 -129 -221 -129z" />
    <glyph glyph-name="d" unicode="d" horiz-adv-x="614" 
d="M279 -14c-136 0 -242 103 -242 262s115 262 241 262c76 0 135 -33 165 -86v276h104v-700h-104v79c-27 -51 -85 -93 -164 -93zM297 81c89 0 154 70 154 167s-65 167 -154 167c-90 0 -154 -69 -154 -167s64 -167 154 -167z" />
    <glyph glyph-name="e" unicode="e" horiz-adv-x="572" 
d="M288 -14c-137 0 -251 106 -251 262c0 155 114 262 256 262c144 0 240 -103 240 -248v-36h-396c7 -88 66 -151 153 -151c77 0 121 38 152 100l76 -44c-47 -97 -120 -145 -230 -145zM139 307h295c-8 78 -68 122 -144 122s-134 -53 -151 -122z" />
    <glyph glyph-name="f" unicode="f" horiz-adv-x="330" 
d="M95 0v413h-75v83h75v81c0 111 63 173 164 173c20 0 40 -3 58 -10l-18 -91c-14 5 -23 7 -37 7c-38 0 -64 -24 -64 -75v-85h112v-83h-112v-413h-103z" />
    <glyph glyph-name="g" unicode="g" horiz-adv-x="590" 
d="M289 -218c-145 0 -229 63 -229 159c0 21 6 41 14 55l98 -30c-4 -10 -7 -22 -7 -35c0 -40 46 -66 124 -66c88 0 138 49 138 158v68c-29 -48 -79 -83 -154 -83c-130 0 -236 100 -236 251c0 153 111 251 237 251c69 0 123 -30 153 -77v63h103v-463
c0 -163 -92 -251 -241 -251zM285 98c83 0 149 60 149 161s-66 161 -149 161s-146 -60 -146 -161s63 -161 146 -161z" />
    <glyph glyph-name="h" unicode="h" horiz-adv-x="588" 
d="M67 0v700h104v-288c36 61 100 98 175 98c108 0 175 -67 175 -174v-336h-103v301c0 72 -41 114 -111 114c-74 0 -136 -64 -136 -155v-260h-104z" />
    <glyph glyph-name="i" unicode="i" horiz-adv-x="238" 
d="M61 575v115h117v-115h-117zM67 0v496h104v-496h-104z" />
    <glyph glyph-name="j" unicode="j" horiz-adv-x="238" 
d="M61 575v115h117v-115h-117zM26 -211c-29 0 -51 4 -68 9l13 94c12 -5 26 -8 40 -8c39 0 56 24 56 70v542h104v-547c0 -97 -45 -160 -145 -160z" />
    <glyph glyph-name="k" unicode="k" horiz-adv-x="521" 
d="M67 0v700h104v-373l172 169h129l-179 -175l206 -321h-118l-161 250l-49 -48v-202h-104z" />
    <glyph glyph-name="l" unicode="l" horiz-adv-x="238" 
d="M67 0v700h104v-700h-104z" />
    <glyph glyph-name="m" unicode="m" horiz-adv-x="836" 
d="M67 0v496h104v-72c32 55 88 86 146 86c69 0 117 -33 137 -90c34 57 94 90 158 90c98 0 156 -61 156 -156v-354h-103v323c0 63 -28 97 -87 97c-60 0 -109 -49 -109 -149v-271h-103v320c0 62 -28 100 -87 100c-57 0 -108 -52 -108 -146v-274h-104z" />
    <glyph glyph-name="n" unicode="n" horiz-adv-x="582" 
d="M67 0v496h104v-84c36 60 98 98 170 98c100 0 174 -62 174 -172v-338h-104v301c0 72 -39 114 -110 114c-72 0 -130 -64 -130 -153v-262h-104z" />
    <glyph glyph-name="o" unicode="o" horiz-adv-x="605" 
d="M303 -14c-136 0 -266 91 -266 262s130 262 266 262c135 0 265 -91 265 -262s-130 -262 -265 -262zM303 81c86 0 160 65 160 167s-74 167 -160 167c-87 0 -161 -65 -161 -167s74 -167 161 -167z" />
    <glyph glyph-name="p" unicode="p" horiz-adv-x="614" 
d="M67 -204v700h104v-81c31 53 97 95 176 95c127 0 230 -103 230 -262c0 -155 -104 -262 -238 -262c-74 0 -133 33 -168 84v-274h-104zM317 81c90 0 154 71 154 167s-64 167 -154 167s-154 -72 -154 -167s64 -167 154 -167z" />
    <glyph glyph-name="q" unicode="q" horiz-adv-x="614" 
d="M443 -204v278c-33 -58 -92 -88 -166 -88c-130 0 -240 107 -240 262c0 159 113 262 240 262c78 0 139 -36 166 -92v78h104v-700h-104zM297 81c90 0 154 72 154 167s-64 167 -154 167s-154 -71 -154 -167s64 -167 154 -167z" />
    <glyph glyph-name="r" unicode="r" horiz-adv-x="367" 
d="M67 0v496h104v-84c26 57 75 98 139 98c16 0 29 -2 43 -6l-17 -96c-11 4 -24 7 -40 7c-74 0 -125 -71 -125 -161v-254h-104z" />
    <glyph glyph-name="s" unicode="s" horiz-adv-x="485" 
d="M262 -14c-118 0 -187 69 -219 147l84 52c22 -66 68 -112 137 -112c52 0 93 27 93 71c0 41 -37 62 -116 76c-95 18 -170 63 -170 152c0 88 83 138 178 138c105 0 163 -43 199 -123l-76 -45c-23 58 -67 90 -121 90c-48 0 -88 -18 -88 -56c0 -39 44 -63 125 -79
c110 -22 165 -66 165 -150c0 -87 -69 -161 -191 -161z" />
    <glyph glyph-name="germandbls" unicode="&#xdf;" horiz-adv-x="596" 
d="M360 -14c-63 0 -108 17 -146 48l46 81c23 -22 54 -39 91 -39c54 0 98 39 98 111c0 96 -80 149 -174 149h-28v91h30c74 0 125 39 125 108c0 54 -42 89 -103 89c-58 0 -108 -38 -108 -120v-504h-103v413h-66v83h66v11c0 142 104 207 213 207c124 0 201 -68 201 -166
c0 -84 -47 -132 -110 -157c95 -33 160 -95 160 -208s-75 -197 -192 -197z" />
    <glyph glyph-name="t" unicode="t" horiz-adv-x="356" 
d="M251 -14c-79 0 -145 38 -145 150v277h-80v83h80v134h103v-134h113v-83h-113v-262c0 -52 25 -74 66 -74c16 0 30 3 40 6l10 -85c-20 -7 -46 -12 -74 -12z" />
    <glyph glyph-name="u" unicode="u" horiz-adv-x="581" 
d="M249 -14c-100 0 -182 62 -182 194v316h104v-296c0 -77 39 -119 110 -119c75 0 130 64 130 155v260h103v-496h-103v82c-32 -60 -92 -96 -162 -96z" />
    <glyph glyph-name="v" unicode="v" horiz-adv-x="514" 
d="M207 0l-200 496h111l139 -368l139 368h111l-200 -496h-100z" />
    <glyph glyph-name="w" unicode="w" horiz-adv-x="701" 
d="M146 0l-140 496h101l93 -367l100 367h102l99 -367l93 367h101l-140 -496h-104l-100 373l-101 -373h-104z" />
    <glyph glyph-name="x" unicode="x" horiz-adv-x="475" 
d="M1 0l182 263l-157 233h118l95 -151l95 151h118l-152 -230l174 -266h-119l-116 183l-118 -183h-120z" />
    <glyph glyph-name="y" unicode="y" horiz-adv-x="523" 
d="M129 -211c-23 0 -45 4 -62 11l16 95c13 -6 26 -10 42 -10c28 0 46 14 59 49l25 63l-204 499h117l141 -355l138 355h117l-242 -596c-32 -79 -78 -111 -147 -111z" />
    <glyph glyph-name="z" unicode="z" horiz-adv-x="489" 
d="M38 0v85l278 326h-268v85h386v-85l-278 -326h294v-85h-412z" />
    <glyph glyph-name="zero" unicode="0" horiz-adv-x="717" 
d="M358 -14c-181 0 -310 145 -310 364s129 364 310 364s311 -145 311 -364s-130 -364 -311 -364zM358 85c118 0 203 99 203 265s-85 265 -203 265s-203 -99 -203 -265s85 -265 203 -265z" />
    <glyph glyph-name="one" unicode="1" horiz-adv-x="377" 
d="M196 0v563c-37 -38 -80 -50 -147 -50v99c80 0 125 29 155 88h99v-700h-107z" />
    <glyph glyph-name="two" unicode="2" horiz-adv-x="582" 
d="M50 0v77l268 263c63 62 90 105 90 164c0 69 -48 115 -125 115c-72 0 -124 -44 -124 -118c0 -19 3 -34 8 -47l-103 -19c-9 23 -13 47 -13 74c0 106 88 205 233 205c148 0 229 -86 229 -199c0 -88 -30 -149 -124 -241l-176 -173h302v-101h-465z" />
    <glyph glyph-name="three" unicode="3" horiz-adv-x="593" 
d="M298 -14c-159 0 -245 101 -245 208c0 19 4 44 11 60l102 -25c-3 -8 -5 -18 -5 -33c0 -69 55 -118 137 -118c79 0 138 44 138 127c0 92 -84 128 -188 128v84c107 0 157 49 157 112c0 59 -44 96 -113 96c-66 0 -116 -39 -116 -99c0 -11 3 -25 6 -32l-100 -21
c-5 15 -9 32 -9 52c0 101 86 189 220 189c144 0 217 -74 217 -171c0 -70 -41 -132 -110 -159c77 -23 144 -81 144 -177c0 -136 -104 -221 -246 -221z" />
    <glyph glyph-name="four" unicode="4" horiz-adv-x="597" 
d="M385 0v127h-341v99l341 474h108v-474h74v-99h-74v-127h-108zM158 226h227v319z" />
    <glyph glyph-name="five" unicode="5" horiz-adv-x="601" 
d="M294 -14c-154 0 -242 95 -242 197c0 19 4 38 10 53l102 -24c-2 -7 -4 -17 -4 -28c0 -68 54 -106 134 -106c89 0 152 59 152 160c0 97 -58 154 -149 154c-64 0 -122 -42 -153 -96l-86 23l34 381h419v-99h-342l-21 -198c43 51 109 75 167 75c155 0 239 -98 239 -240
c0 -144 -105 -252 -260 -252z" />
    <glyph glyph-name="six" unicode="6" horiz-adv-x="611" 
d="M314 -14c-162 0 -266 118 -266 323c0 95 17 169 41 230c46 111 132 175 239 175c130 0 211 -70 211 -170c0 -20 -4 -38 -10 -55l-100 22c4 10 7 22 7 35c0 53 -41 83 -108 83c-106 0 -168 -115 -177 -260c41 55 108 89 180 89c137 0 236 -97 236 -233
c0 -134 -106 -239 -253 -239zM313 75c81 0 149 54 149 147s-68 147 -149 147s-150 -54 -150 -147s69 -147 150 -147z" />
    <glyph glyph-name="seven" unicode="7" horiz-adv-x="540" 
d="M123 0l269 601h-354v99h463v-93l-271 -607h-107z" />
    <glyph glyph-name="eight" unicode="8" horiz-adv-x="584" 
d="M292 -14c-146 0 -243 83 -243 208c0 85 49 149 119 181c-61 32 -97 88 -97 156c0 107 92 183 221 183s221 -76 221 -183c0 -68 -36 -124 -97 -156c70 -32 119 -96 119 -181c0 -125 -97 -208 -243 -208zM292 415c65 0 118 40 118 109s-55 108 -118 108s-118 -39 -118 -108
s53 -109 118 -109zM292 75c80 0 137 52 137 126s-60 126 -137 126s-137 -52 -137 -126s57 -126 137 -126z" />
    <glyph glyph-name="nine" unicode="9" horiz-adv-x="611" 
d="M283 -14c-136 0 -212 74 -212 172c0 20 4 38 9 53l101 -23c-4 -12 -7 -21 -7 -34c0 -53 45 -83 112 -83c101 0 164 100 174 259c-31 -52 -92 -88 -173 -88c-141 0 -243 97 -243 233c0 134 104 239 253 239c172 0 266 -118 266 -323c0 -95 -18 -172 -42 -233
c-43 -110 -130 -172 -238 -172zM299 331c79 0 150 54 150 147s-71 147 -150 147s-150 -54 -150 -147s71 -147 150 -147z" />
    <glyph glyph-name="period" unicode="." horiz-adv-x="201" 
d="M43 0v117h116v-117h-116z" />
    <glyph glyph-name="comma" unicode="," horiz-adv-x="201" 
d="M72 -139l-24 10l35 129h-40v117h116v-117z" />
    <glyph glyph-name="colon" unicode=":" horiz-adv-x="201" 
d="M43 363v117h116v-117h-116zM43 0v117h116v-117h-116z" />
    <glyph glyph-name="semicolon" unicode=";" horiz-adv-x="201" 
d="M43 363v117h116v-117h-116zM70 -146l-24 9l37 137h-40v117h116v-117z" />
    <glyph glyph-name="ellipsis" unicode="&#x2026;" horiz-adv-x="579" 
d="M43 0v117h116v-117h-116zM232 0v117h116v-117h-116zM421 0v117h116v-117h-116z" />
    <glyph glyph-name="exclam" unicode="!" horiz-adv-x="271" 
d="M96 196l-14 271v233h108v-233l-15 -271h-79zM78 0v120h115v-120h-115z" />
    <glyph glyph-name="exclamdown" unicode="&#xa1;" horiz-adv-x="271" 
d="M78 376v120h115v-120h-115zM82 -204v233l14 271h79l15 -271v-233h-108z" />
    <glyph glyph-name="question" unicode="?" horiz-adv-x="541" 
d="M209 197v15c0 66 19 104 86 159c68 56 96 92 96 150c0 61 -50 100 -121 100c-67 0 -125 -41 -125 -115c0 -14 3 -28 7 -40l-95 -19c-8 18 -13 41 -13 68c0 99 85 199 224 199c143 0 225 -78 225 -186c0 -81 -29 -129 -127 -213c-39 -34 -53 -61 -53 -118h-104zM203 0v120
h116v-120h-116z" />
    <glyph glyph-name="questiondown" unicode="&#xbf;" horiz-adv-x="541" 
d="M338 496v-120h-116v120h116zM332 299v-15c0 -66 -19 -104 -86 -159c-68 -56 -96 -92 -96 -150c0 -61 50 -100 121 -100c67 0 125 41 125 115c0 14 -3 28 -7 40l95 19c8 -18 13 -41 13 -68c0 -99 -85 -199 -224 -199c-143 0 -225 78 -225 186c0 81 29 129 127 213
c39 34 53 61 53 118h104z" />
    <glyph glyph-name="periodcentered" unicode="&#xb7;" horiz-adv-x="201" 
d="M43 299v117h116v-117h-116z" />
    <glyph glyph-name="bullet" unicode="&#x2022;" horiz-adv-x="306" 
d="M153 169c-59 0 -106 47 -106 106s47 106 106 106s106 -47 106 -106s-47 -106 -106 -106z" />
    <glyph glyph-name="asterisk" unicode="*" horiz-adv-x="423" 
d="M164 380l19 110l-86 -71l-48 82l105 39l-105 39l48 82l86 -71l-19 110h95l-18 -110l86 71l47 -82l-105 -39l105 -39l-47 -82l-86 71l18 -110h-95z" />
    <glyph glyph-name="numbersign" unicode="#" horiz-adv-x="664" 
d="M105 0l39 213h-96v77h110l22 120h-112v77h126l39 213h92l-39 -213h146l39 213h92l-39 -213h96v-77h-110l-22 -120h112v-77h-126l-39 -213h-92l39 213h-146l-39 -213h-92zM250 290h146l22 120h-146z" />
    <glyph glyph-name="slash" unicode="/" horiz-adv-x="515" 
d="M5 -30l400 760h106l-400 -760h-106z" />
    <glyph glyph-name="backslash" unicode="\" horiz-adv-x="515" 
d="M405 -30l-400 760h106l400 -760h-106z" />
    <glyph glyph-name="parenleft" unicode="(" horiz-adv-x="348" 
d="M174 -148c-59 106 -108 250 -108 424s49 318 108 424h93c-56 -105 -95 -275 -95 -424s39 -319 95 -424h-93z" />
    <glyph glyph-name="parenright" unicode=")" horiz-adv-x="348" 
d="M81 -148c56 105 95 275 95 424s-39 319 -95 424h93c59 -106 108 -250 108 -424s-49 -318 -108 -424h-93z" />
    <glyph glyph-name="braceleft" unicode="{" horiz-adv-x="383" 
d="M293 -150c-110 0 -166 50 -166 178v118c0 68 -26 86 -76 86v86c50 0 76 18 76 86v118c0 128 56 178 166 178h42v-95h-27c-50 0 -78 -27 -78 -89v-124c0 -71 -22 -98 -68 -117c46 -19 68 -46 68 -117v-124c0 -62 28 -89 78 -89h27v-95h-42z" />
    <glyph glyph-name="braceright" unicode="}" horiz-adv-x="383" 
d="M48 -150v95h27c50 0 78 27 78 89v124c0 71 22 98 68 117c-46 19 -68 46 -68 117v124c0 62 -28 89 -78 89h-27v95h42c111 0 167 -50 167 -178v-118c0 -68 25 -86 75 -86v-86c-50 0 -75 -18 -75 -86v-118c0 -128 -56 -178 -167 -178h-42z" />
    <glyph glyph-name="bracketleft" unicode="[" horiz-adv-x="336" 
d="M79 -150v850h210v-95h-107v-660h107v-95h-210z" />
    <glyph glyph-name="bracketright" unicode="]" horiz-adv-x="336" 
d="M47 -150v95h107v660h-107v95h210v-850h-210z" />
    <glyph glyph-name="hyphen" unicode="-" horiz-adv-x="461" 
d="M43 269v84h375v-84h-375z" />
    <glyph glyph-name="uni00AD" unicode="&#xad;" horiz-adv-x="461" 
d="M43 269v84h375v-84h-375z" />
    <glyph glyph-name="endash" unicode="&#x2013;" horiz-adv-x="552" 
d="M43 269v84h466v-84h-466z" />
    <glyph glyph-name="emdash" unicode="&#x2014;" horiz-adv-x="822" 
d="M43 269v84h736v-84h-736z" />
    <glyph glyph-name="underscore" unicode="_" horiz-adv-x="482" 
d="M7 -90v83h468v-83h-468z" />
    <glyph glyph-name="quotesinglbase" unicode="&#x201a;" horiz-adv-x="204" 
d="M53 -141l-23 16l64 125h-46v117h116v-117z" />
    <glyph glyph-name="quotedblbase" unicode="&#x201e;" horiz-adv-x="354" 
d="M53 -141l-23 16l64 125h-46v117h116v-117zM203 -141l-23 16l64 125h-46v117h116v-117z" />
    <glyph glyph-name="quotedblleft" unicode="&#x201c;" horiz-adv-x="354" 
d="M40 449v117l111 141l23 -16l-65 -125h47v-117h-116zM190 449v117l111 141l23 -16l-65 -125h47v-117h-116z" />
    <glyph glyph-name="quotedblright" unicode="&#x201d;" horiz-adv-x="354" 
d="M53 442l-23 17l64 124h-46v117h116v-117zM203 442l-23 17l64 124h-46v117h116v-117z" />
    <glyph glyph-name="quoteleft" unicode="&#x2018;" horiz-adv-x="204" 
d="M40 449v117l111 141l23 -16l-65 -125h47v-117h-116z" />
    <glyph glyph-name="quoteright" unicode="&#x2019;" horiz-adv-x="204" 
d="M53 442l-23 17l64 124h-46v117h116v-117z" />
    <glyph glyph-name="guilsinglleft" unicode="&#x2039;" horiz-adv-x="354" 
d="M205 69l-162 206l162 207h117l-161 -207l161 -206h-117z" />
    <glyph glyph-name="guilsinglright" unicode="&#x203a;" horiz-adv-x="354" 
d="M32 69l161 206l-161 207h117l162 -207l-162 -206h-117z" />
    <glyph glyph-name="quotedbl" unicode="&#x22;" horiz-adv-x="370" 
d="M68 470l-13 161v69h101v-69l-13 -161h-75zM227 470l-13 161v69h101v-69l-13 -161h-75z" />
    <glyph glyph-name="quotesingle" unicode="'" horiz-adv-x="211" 
d="M68 470l-13 161v69h101v-69l-13 -161h-75z" />
    <glyph glyph-name="cent" unicode="&#xa2;" horiz-adv-x="549" 
d="M516 115c-41 -69 -99 -115 -181 -126v-99h-86v100c-124 19 -212 119 -212 258c0 138 94 238 212 258v114h86v-112c86 -10 147 -53 178 -123l-85 -52c-24 44 -56 67 -93 76v-323c45 10 74 37 98 80zM143 248c0 -83 43 -141 106 -160v319c-62 -19 -106 -76 -106 -159z" />
    <glyph glyph-name="currency" unicode="&#xa4;" horiz-adv-x="641" 
d="M124 91l-62 63l72 72c-22 33 -35 74 -35 124s13 91 35 124l-72 72l62 63l73 -73c37 25 81 37 124 37s86 -12 123 -37l73 73l62 -63l-72 -72c22 -33 36 -74 36 -124s-14 -91 -36 -124l72 -72l-62 -63l-73 73c-37 -25 -80 -37 -123 -37s-87 12 -124 37zM321 209
c79 0 134 58 134 141s-55 141 -134 141s-134 -58 -134 -141s55 -141 134 -141z" />
    <glyph glyph-name="dollar" unicode="$" horiz-adv-x="648" 
d="M285 -100v89c-137 17 -215 106 -238 217l96 50c17 -93 62 -153 142 -170v238c-120 27 -207 89 -207 203c0 103 84 174 207 185v88h89v-91c98 -16 170 -75 205 -170l-86 -50c-22 64 -63 107 -119 124v-210c142 -31 217 -93 217 -204c0 -106 -83 -195 -217 -210v-89h-89z
M285 426v194c-61 -8 -103 -39 -103 -92c0 -50 37 -80 103 -102zM374 85c69 11 109 55 109 108c0 56 -38 88 -109 109v-217z" />
    <glyph glyph-name="sterling" unicode="&#xa3;" horiz-adv-x="569" 
d="M64 0v75c43 51 63 93 63 164c0 24 -3 46 -8 68h-89v82h69c-10 35 -19 72 -19 112c0 134 100 213 231 213c140 0 217 -79 217 -178c0 -26 -4 -45 -14 -71l-96 17c6 18 9 32 9 52c0 48 -41 92 -119 92c-70 0 -124 -43 -124 -127c0 -40 9 -75 18 -110h194v-82h-176
c3 -20 6 -41 6 -64c0 -68 -20 -111 -46 -152h339v-91h-455z" />
    <glyph glyph-name="yen" unicode="&#xa5;" horiz-adv-x="582" 
d="M237 0v127h-147v84h147v69h-147v83h103l-178 337h116l137 -271s14 -28 23 -52c9 24 23 52 23 52l137 271h116l-178 -337h103v-83h-147v-69h147v-84h-147v-127h-108z" />
    <glyph glyph-name="plus" unicode="+" horiz-adv-x="540" 
d="M228 138v185h-185v84h185v185h83v-185h186v-84h-186v-185h-83z" />
    <glyph glyph-name="minus" unicode="&#x2212;" horiz-adv-x="540" 
d="M43 323v84h454v-84h-454z" />
    <glyph glyph-name="multiply" unicode="&#xd7;" horiz-adv-x="531" 
d="M135 175l-59 59l131 131l-131 130l59 59l131 -130l130 130l59 -58l-131 -131l131 -131l-59 -59l-130 131z" />
    <glyph glyph-name="equal" unicode="=" horiz-adv-x="540" 
d="M43 403v84h454v-84h-454zM43 207v83h454v-83h-454z" />
    <glyph glyph-name="greater" unicode="&#x3e;" horiz-adv-x="509" 
d="M43 59v102l315 149l-315 149v102l423 -208v-86z" />
    <glyph glyph-name="less" unicode="&#x3c;" horiz-adv-x="509" 
d="M466 59l-423 208v86l423 208v-102l-315 -149l315 -149v-102z" />
    <glyph glyph-name="asciitilde" unicode="~" horiz-adv-x="450" 
d="M56 261c-7 10 -13 27 -13 48c0 60 44 95 99 95c91 0 109 -64 153 -64c16 0 29 10 29 27c0 9 -2 16 -6 23l76 14c7 -10 13 -28 13 -50c0 -60 -44 -93 -99 -93c-91 0 -109 64 -153 64c-16 0 -29 -10 -29 -27c0 -9 2 -16 6 -23z" />
    <glyph glyph-name="asciicircum" unicode="^" horiz-adv-x="469" 
d="M19 439l169 261h94l169 -261h-98l-118 183l-119 -183h-97z" />
    <glyph glyph-name="percent" unicode="%" horiz-adv-x="877" 
d="M216 364c-101 0 -172 76 -172 175s71 175 172 175c102 0 173 -76 173 -175s-71 -175 -173 -175zM252 -4l-62 42l436 666l61 -42zM216 438c54 0 93 41 93 101s-39 101 -93 101s-93 -41 -93 -101s39 -101 93 -101zM661 -14c-101 0 -172 76 -172 175s71 175 172 175
s172 -76 172 -175s-71 -175 -172 -175zM661 60c54 0 93 41 93 101s-39 101 -93 101s-93 -41 -93 -101s39 -101 93 -101z" />
    <glyph glyph-name="perthousand" unicode="&#x2030;" horiz-adv-x="1143" 
d="M216 364c-101 0 -172 76 -172 175s71 175 172 175c102 0 173 -76 173 -175s-71 -175 -173 -175zM250 -4l-62 42l436 666l61 -42zM216 438c54 0 93 41 93 101s-39 101 -93 101s-93 -41 -93 -101s39 -101 93 -101zM661 -14c-101 0 -172 76 -172 175s71 175 172 175
c55 0 102 -23 133 -61c30 38 77 61 132 61c102 0 173 -76 173 -175s-71 -175 -173 -175c-55 0 -102 23 -132 61c-31 -38 -78 -61 -133 -61zM661 60c54 0 93 41 93 101s-39 101 -93 101s-93 -41 -93 -101s39 -101 93 -101zM926 60c54 0 93 41 93 101s-39 101 -93 101
s-93 -41 -93 -101s39 -101 93 -101z" />
    <glyph glyph-name="uni25CC" unicode="&#x25cc;" horiz-adv-x="602" 
d="M301 456c-17 0 -31 14 -31 31s14 31 31 31s31 -14 31 -31s-14 -31 -31 -31zM213 439c-17 0 -31 14 -31 31s14 31 31 31s31 -14 31 -31s-14 -31 -31 -31zM389 439c-17 0 -31 14 -31 31s14 31 31 31s31 -14 31 -31s-14 -31 -31 -31zM138 389c-17 0 -31 14 -31 31
s14 31 31 31s31 -14 31 -31s-14 -31 -31 -31zM464 389c-17 0 -31 14 -31 31s14 31 31 31s31 -14 31 -31s-14 -31 -31 -31zM88 316c-17 0 -31 14 -31 31s14 31 31 31s31 -14 31 -31s-14 -31 -31 -31zM514 316c-17 0 -31 14 -31 31s14 31 31 31s31 -14 31 -31s-14 -31 -31 -31
zM71 226c-17 0 -31 14 -31 31s14 31 31 31s31 -14 31 -31s-14 -31 -31 -31zM531 226c-17 0 -31 14 -31 31s14 31 31 31s31 -14 31 -31s-14 -31 -31 -31zM88 136c-17 0 -31 14 -31 31s14 31 31 31s31 -14 31 -31s-14 -31 -31 -31zM514 136c-17 0 -31 14 -31 31s14 31 31 31
s31 -14 31 -31s-14 -31 -31 -31zM138 63c-17 0 -31 14 -31 31s14 31 31 31s31 -14 31 -31s-14 -31 -31 -31zM464 63c-17 0 -31 14 -31 31s14 31 31 31s31 -14 31 -31s-14 -31 -31 -31zM213 13c-17 0 -31 14 -31 31s14 31 31 31s31 -14 31 -31s-14 -31 -31 -31zM389 13
c-17 0 -31 14 -31 31s14 31 31 31s31 -14 31 -31s-14 -31 -31 -31zM301 -4c-17 0 -31 14 -31 31s14 31 31 31s31 -14 31 -31s-14 -31 -31 -31z" />
    <glyph glyph-name="uniF8FF" unicode="&#xf8ff;" horiz-adv-x="780" 
d="M116 0c-13 0 -22 11 -22 22v595c0 10 7 19 16 22l270 78c3 1 8 2 10 2s7 -1 10 -2l270 -78c9 -3 16 -12 16 -22v-595c0 -11 -9 -22 -22 -22c-2 0 -3 0 -7 1l-267 77l-267 -77c-4 -1 -5 -1 -7 -1zM368 366v303l-230 -67c8 -125 106 -225 230 -236zM412 366
c124 11 222 111 230 236l-230 67v-303zM137 51l231 67v204c-98 8 -183 62 -231 141v-412zM643 51v412c-49 -79 -133 -133 -231 -141v-204z" />
    <glyph glyph-name="at" unicode="@" horiz-adv-x="951" 
d="M453 -152c-204 0 -405 126 -405 421c0 246 186 445 450 445c207 0 400 -119 400 -373c0 -184 -112 -314 -241 -314c-57 0 -95 31 -95 78c0 6 1 10 2 20c-28 -55 -89 -98 -157 -98c-104 0 -177 81 -177 211c0 197 135 302 247 302c58 0 107 -24 128 -75l10 59h82l-56 -369
c-1 -9 -1 -12 -1 -17c0 -26 13 -37 35 -37c59 0 134 80 134 238c0 170 -105 296 -318 296c-190 0 -353 -156 -353 -371c0 -225 150 -337 323 -337c87 0 141 24 186 55l41 -68c-63 -42 -128 -66 -235 -66zM419 101c89 0 165 105 165 239c0 78 -33 124 -96 124
c-82 0 -168 -89 -168 -228c0 -93 45 -135 99 -135z" />
    <glyph glyph-name="ampersand" unicode="&#x26;" horiz-adv-x="651" 
d="M275 -14c-129 0 -221 89 -221 214c0 98 57 162 134 209c-28 43 -47 91 -47 139c0 99 75 166 170 166c96 0 164 -55 164 -142c0 -75 -49 -130 -157 -185l147 -191c21 41 36 90 47 147l81 -46c-15 -62 -38 -125 -71 -176l93 -121h-120l-38 50c-47 -40 -108 -64 -182 -64z
M270 450c87 40 116 70 116 115c0 41 -33 68 -75 68c-40 0 -79 -28 -79 -83c0 -34 13 -65 38 -100zM287 76c46 0 83 14 118 44l-167 221c-53 -37 -81 -77 -81 -138c0 -78 58 -127 130 -127z" />
    <glyph glyph-name="paragraph" unicode="&#xb6;" horiz-adv-x="635" 
d="M275 -120v438h-22c-121 0 -214 74 -214 191s93 191 214 191h349v-85h-63v-735h-95v735h-74v-735h-95z" />
    <glyph glyph-name="section" unicode="&#xa7;" horiz-adv-x="523" 
d="M266 -93c-110 0 -179 58 -215 136l73 52c29 -71 78 -107 144 -107c55 0 102 28 102 82c0 46 -32 84 -146 108c-104 22 -164 78 -164 157c0 41 19 76 50 101c-30 28 -46 65 -46 112c0 106 89 166 193 166c108 0 179 -58 214 -136l-72 -52c-30 71 -77 107 -143 107
c-55 0 -102 -28 -102 -82c0 -44 31 -83 146 -109c116 -25 164 -68 164 -148c0 -45 -20 -82 -49 -107c30 -29 45 -65 45 -114c0 -106 -89 -166 -194 -166zM350 226c18 15 27 33 27 54c0 39 -32 68 -129 90c-28 6 -53 15 -76 25c-17 -14 -26 -32 -26 -51c0 -42 33 -70 129 -93
c29 -7 54 -15 75 -25z" />
    <glyph glyph-name="bar" unicode="|" horiz-adv-x="257" 
d="M78 -110v850h101v-850h-101z" />
    <glyph glyph-name="brokenbar" unicode="&#xa6;" horiz-adv-x="257" 
d="M78 384v356h101v-356h-101zM78 -110v356h101v-356h-101z" />
    <glyph glyph-name="periodar" horiz-adv-x="233" 
d="M115 -16l-82 83l84 83l82 -83z" />
    <glyph glyph-name="midhamzaar" horiz-adv-x="203" 
d="M153 587l44 9v-59l-184 -35l-15 56l35 7c-16 17 -26 38 -26 61c0 54 40 91 91 91c42 0 73 -20 93 -51l-41 -33c-12 16 -28 27 -49 27c-22 0 -36 -15 -36 -37c0 -28 31 -47 88 -36z" />
    <glyph glyph-name="uni0651064D" 
d="M114 713c-39 0 -62 22 -62 61c0 22 10 47 25 68l29 -18c-10 -16 -17 -34 -17 -50c0 -14 9 -25 25 -25c23 0 32 17 32 73h37c0 -23 -2 -43 -6 -58c7 -11 18 -15 31 -15c17 0 28 12 28 30c0 17 -7 37 -20 56l29 21c17 -23 28 -51 28 -77c0 -38 -27 -66 -65 -66
c-19 0 -36 7 -48 19c-11 -13 -26 -19 -46 -19zM257 679l7 -37l-194 -34l-8 36zM268 612l7 -36l-194 -35l-7 37z" />
    <glyph glyph-name="uni0621" unicode="&#x621;" horiz-adv-x="452" 
d="M391 138l17 -88l-367 -72l-18 88l83 16c-45 30 -71 74 -71 129c0 96 73 167 171 167c82 0 153 -54 167 -129l-96 -16c-6 32 -35 55 -71 55c-44 0 -74 -31 -74 -77c0 -52 53 -94 145 -95z" />
    <glyph glyph-name="uni0627" unicode="&#x627;" horiz-adv-x="253" 
d="M78 0v700h97v-700h-97z" />
    <glyph glyph-name="uni0627.short" horiz-adv-x="253" 
d="M78 0v600h97v-600h-97z" />
    <glyph glyph-name="uniFE8E.short" horiz-adv-x="279" 
d="M262 0c-122 0 -184 57 -184 179v421h97v-417c0 -57 23 -93 87 -93h17v-90h-17z" />
    <glyph glyph-name="uni0623" unicode="&#x623;" horiz-adv-x="253" 
d="M172 730l39 8v-54l-162 -31l-14 52l30 6c-14 14 -23 34 -23 53c0 48 35 81 82 81c37 0 64 -18 81 -45l-35 -29c-11 14 -25 23 -44 23c-18 0 -32 -14 -32 -33c0 -24 28 -41 78 -31zM78 0v600h97v-600h-97z" />
    <glyph glyph-name="uni0625" unicode="&#x625;" horiz-adv-x="253" 
d="M175 700v-700h-97v700h97zM184 -169l39 7v-53l-163 -32l-13 52l30 6c-15 14 -24 33 -24 53c0 48 35 82 83 82c37 0 64 -18 81 -46l-35 -29c-11 14 -25 23 -44 23s-32 -13 -32 -33c0 -24 27 -41 78 -30z" />
    <glyph glyph-name="uni0622" unicode="&#x622;" horiz-adv-x="253" 
d="M216 748l40 -23c-20 -34 -46 -51 -80 -51c-49 0 -101 40 -127 40c-16 0 -31 -12 -43 -33l-43 23c19 37 51 60 86 60c48 0 89 -40 127 -40c18 0 29 9 40 24zM78 0v600h97v-600h-97z" />
    <glyph glyph-name="uni0671" unicode="&#x671;" horiz-adv-x="253" 
d="M176 829c40 0 69 -29 69 -69c0 -55 -47 -84 -130 -83c-30 1 -58 3 -86 6l5 47c11 -1 22 -3 34 -4c27 66 65 103 108 103zM117 724c58 0 81 13 81 36c0 14 -8 22 -22 22c-19 0 -40 -20 -59 -58zM78 0v600h97v-600h-97z" />
    <glyph glyph-name="uni066E" unicode="&#x66e;" horiz-adv-x="873" 
d="M698 433h97v-433h-424c-229 0 -341 70 -341 221c0 37 7 78 20 123l92 -23c-10 -37 -15 -70 -15 -100c0 -93 64 -131 244 -131h327v343z" />
    <glyph glyph-name="uni0628" unicode="&#x628;" horiz-adv-x="873" 
d="M698 433h97v-433h-424c-229 0 -341 70 -341 221c0 37 7 78 20 123l92 -23c-10 -37 -15 -70 -15 -100c0 -93 64 -131 244 -131h327v343zM419 -197l-70 70l70 72l71 -72z" />
    <glyph glyph-name="uni067E" unicode="&#x67e;" horiz-adv-x="873" 
d="M698 433h97v-433h-424c-229 0 -341 70 -341 221c0 37 7 78 20 123l92 -23c-10 -37 -15 -70 -15 -100c0 -93 64 -131 244 -131h327v343zM420 -119l63 64l70 -72l-70 -71l-63 63l-63 -63l-71 71l71 72zM349 -263l71 71l70 -71l-70 -72z" />
    <glyph glyph-name="uni062A" unicode="&#x62a;" horiz-adv-x="873" 
d="M422 474l-63 -63l-71 71l71 71l63 -63l63 63l70 -71l-70 -71zM698 433h97v-433h-424c-229 0 -341 70 -341 221c0 37 7 78 20 123l92 -23c-10 -37 -15 -70 -15 -100c0 -93 64 -131 244 -131h327v343z" />
    <glyph glyph-name="uni062B" unicode="&#x62b;" horiz-adv-x="873" 
d="M492 604l-70 -70l-71 70l71 73zM422 474l-63 -63l-71 71l71 72l63 -64l63 64l70 -72l-70 -71zM698 433h97v-433h-424c-229 0 -341 70 -341 221c0 37 7 78 20 123l92 -23c-10 -37 -15 -70 -15 -100c0 -93 64 -131 244 -131h327v343z" />
    <glyph glyph-name="uni062C" unicode="&#x62c;" horiz-adv-x="649" 
d="M577 -132l59 -64c-67 -69 -174 -109 -291 -109c-183 0 -315 107 -315 260c0 158 138 273 393 355c-115 37 -194 53 -247 53c-29 0 -45 -18 -45 -46c0 -14 3 -32 11 -52l-90 -33c-11 31 -18 61 -18 85c0 81 57 136 139 136c86 0 215 -31 407 -98l-4 -86
c-293 -71 -449 -180 -449 -314c0 -102 85 -170 218 -170c97 0 176 31 232 83zM364 -66l-65 66l65 67l66 -67z" />
    <glyph glyph-name="uni062C.cut" horiz-adv-x="649" 
d="M552 -159l46 -71c-66 -48 -156 -75 -253 -75c-183 0 -315 107 -315 260c0 158 138 273 393 355c-115 37 -194 53 -247 53c-29 0 -45 -18 -45 -46c0 -14 3 -32 11 -52l-90 -33c-11 31 -18 61 -18 85c0 81 57 136 139 136c86 0 215 -31 407 -98l-4 -86
c-293 -71 -449 -180 -449 -314c0 -102 85 -170 218 -170c83 0 152 23 207 56zM364 -66l-65 66l65 67l66 -67z" />
    <glyph glyph-name="uni0686" unicode="&#x686;" horiz-adv-x="649" 
d="M577 -132l59 -64c-67 -69 -174 -109 -291 -109c-183 0 -315 107 -315 260c0 158 138 273 393 355c-115 37 -194 53 -247 53c-29 0 -45 -18 -45 -46c0 -14 3 -32 11 -52l-90 -33c-11 31 -18 61 -18 85c0 81 57 136 139 136c86 0 215 -31 407 -98l-4 -86
c-293 -71 -449 -180 -449 -314c0 -102 85 -170 218 -170c97 0 176 31 232 83zM417 93l55 -57l-55 -56l-53 52l-52 -52l-56 56l56 57l52 -53zM309 -72l56 57l56 -57l-57 -56z" />
    <glyph glyph-name="uni0686.cut" horiz-adv-x="649" 
d="M552 -159l46 -71c-66 -48 -156 -75 -253 -75c-183 0 -315 107 -315 260c0 158 138 273 393 355c-115 37 -194 53 -247 53c-29 0 -45 -18 -45 -46c0 -14 3 -32 11 -52l-90 -33c-11 31 -18 61 -18 85c0 81 57 136 139 136c86 0 215 -31 407 -98l-4 -86
c-293 -71 -449 -180 -449 -314c0 -102 85 -170 218 -170c83 0 152 23 207 56zM417 93l55 -57l-55 -56l-53 52l-52 -52l-56 56l56 57l52 -53zM309 -72l56 57l56 -57l-57 -56z" />
    <glyph glyph-name="uni062D" unicode="&#x62d;" horiz-adv-x="649" 
d="M577 -132l59 -64c-67 -69 -174 -109 -291 -109c-183 0 -315 107 -315 260c0 158 138 273 393 355c-115 37 -194 53 -247 53c-29 0 -45 -18 -45 -46c0 -14 3 -32 11 -52l-90 -33c-11 31 -18 61 -18 85c0 81 57 136 139 136c86 0 215 -31 407 -98l-4 -86
c-293 -71 -449 -180 -449 -314c0 -102 85 -170 218 -170c97 0 176 31 232 83z" />
    <glyph glyph-name="uni062D.cut" horiz-adv-x="649" 
d="M552 -159l46 -71c-66 -48 -156 -75 -253 -75c-183 0 -315 107 -315 260c0 158 138 273 393 355c-115 37 -194 53 -247 53c-29 0 -45 -18 -45 -46c0 -14 3 -32 11 -52l-90 -33c-11 31 -18 61 -18 85c0 81 57 136 139 136c86 0 215 -31 407 -98l-4 -86
c-293 -71 -449 -180 -449 -314c0 -102 85 -170 218 -170c83 0 152 23 207 56z" />
    <glyph glyph-name="uni062E" unicode="&#x62e;" horiz-adv-x="649" 
d="M408 610l-71 -71l-70 71l70 71zM577 -132l59 -64c-67 -69 -174 -109 -291 -109c-183 0 -315 107 -315 260c0 158 138 273 393 355c-115 37 -194 53 -247 53c-29 0 -45 -18 -45 -46c0 -14 3 -32 11 -52l-90 -33c-11 31 -18 61 -18 85c0 81 57 136 139 136
c86 0 215 -31 407 -98l-4 -86c-293 -71 -449 -180 -449 -314c0 -102 85 -170 218 -170c97 0 176 31 232 83z" />
    <glyph glyph-name="uni062E.cut" horiz-adv-x="649" 
d="M408 610l-71 -71l-70 71l70 71zM552 -159l46 -71c-66 -48 -156 -75 -253 -75c-183 0 -315 107 -315 260c0 158 138 273 393 355c-115 37 -194 53 -247 53c-29 0 -45 -18 -45 -46c0 -14 3 -32 11 -52l-90 -33c-11 31 -18 61 -18 85c0 81 57 136 139 136
c86 0 215 -31 407 -98l-4 -86c-293 -71 -449 -180 -449 -314c0 -102 85 -170 218 -170c83 0 152 23 207 56z" />
    <glyph glyph-name="uni062F" unicode="&#x62f;" horiz-adv-x="501" 
d="M30 0v90h129c146 0 187 22 187 80c0 42 -65 139 -191 272l70 62c146 -155 217 -264 217 -334c0 -119 -90 -170 -283 -170h-129z" />
    <glyph glyph-name="uni0630" unicode="&#x630;" horiz-adv-x="501" 
d="M191 559l-70 71l70 71l71 -71zM30 0v90h129c146 0 187 22 187 80c0 42 -65 139 -191 272l70 62c146 -155 217 -264 217 -334c0 -119 -90 -170 -283 -170h-129z" />
    <glyph glyph-name="uni0631" unicode="&#x631;" horiz-adv-x="343" 
d="M18 -204v90c111 0 150 49 150 176v371h96v-371c0 -175 -78 -266 -246 -266z" />
    <glyph glyph-name="uni0632" unicode="&#x632;" horiz-adv-x="343" 
d="M217 519l-70 71l70 71l71 -71zM18 -204v90c111 0 150 49 150 176v371h96v-371c0 -175 -78 -266 -246 -266z" />
    <glyph glyph-name="uni0698" unicode="&#x698;" horiz-adv-x="343" 
d="M288 714l-70 -70l-71 70l71 73zM281 664l70 -72l-70 -71l-63 63l-63 -63l-71 71l71 72l63 -64zM168 62v371h96v-371c0 -175 -78 -266 -246 -266v90c111 0 150 49 150 176z" />
    <glyph glyph-name="uni0633" unicode="&#x633;" horiz-adv-x="1202" 
d="M1097 439c24 -77 37 -149 37 -222c0 -142 -64 -217 -180 -217c-55 0 -97 20 -124 51c-31 -34 -79 -51 -144 -51c-34 0 -62 7 -86 20c-18 -142 -120 -224 -282 -224c-171 0 -288 108 -288 268c0 82 27 169 77 249l81 -45c-40 -66 -61 -136 -61 -204
c0 -110 72 -178 191 -178c126 0 188 60 188 181v366h97v-259c0 -57 34 -84 83 -84c67 0 88 20 88 84v192h97v-192c0 -57 34 -84 83 -84c58 0 83 39 83 127c0 64 -11 127 -32 194z" />
    <glyph glyph-name="uni0634" unicode="&#x634;" horiz-adv-x="1202" 
d="M895 647l-70 -70l-72 70l71 73zM824 517l-63 -63l-70 71l70 72l63 -64l63 64l71 -72l-71 -71zM1097 439c24 -77 37 -149 37 -222c0 -142 -64 -217 -180 -217c-55 0 -97 20 -124 51c-31 -34 -79 -51 -144 -51c-34 0 -62 7 -86 20c-18 -142 -120 -224 -282 -224
c-171 0 -288 108 -288 268c0 82 27 169 77 249l81 -45c-40 -66 -61 -136 -61 -204c0 -110 72 -178 191 -178c126 0 188 60 188 181v366h97v-259c0 -57 34 -84 83 -84c67 0 88 20 88 84v192h97v-192c0 -57 34 -84 83 -84c58 0 83 39 83 127c0 64 -11 127 -32 194z" />
    <glyph glyph-name="uni0635" unicode="&#x635;" horiz-adv-x="1349" 
d="M1059 433c133 0 221 -99 221 -235c0 -131 -96 -198 -283 -198h-291c-46 0 -80 9 -105 27c-15 -146 -118 -231 -283 -231c-171 0 -288 108 -288 268c0 82 27 169 77 249l81 -45c-40 -66 -61 -136 -61 -204c0 -110 72 -178 191 -178c126 0 188 60 188 181v366h97v-249
c0 -50 22 -79 64 -90c111 223 243 339 392 339zM997 90c137 0 187 33 187 108c0 84 -49 145 -125 145c-99 0 -197 -84 -287 -253h225z" />
    <glyph glyph-name="uni0636" unicode="&#x636;" horiz-adv-x="1349" 
d="M1081 590l-71 -71l-70 71l70 71zM1059 433c133 0 221 -99 221 -235c0 -131 -96 -198 -283 -198h-291c-46 0 -80 9 -105 27c-15 -146 -118 -231 -283 -231c-171 0 -288 108 -288 268c0 82 27 169 77 249l81 -45c-40 -66 -61 -136 -61 -204c0 -110 72 -178 191 -178
c126 0 188 60 188 181v366h97v-249c0 -50 22 -79 64 -90c111 223 243 339 392 339zM997 90c137 0 187 33 187 108c0 84 -49 145 -125 145c-99 0 -197 -84 -287 -253h225z" />
    <glyph glyph-name="uni0637" unicode="&#x637;" horiz-adv-x="795" 
d="M506 433c133 0 221 -100 221 -235c0 -131 -97 -198 -283 -198h-414v90h82c19 39 39 74 59 107v503h97v-378c73 73 153 111 238 111zM444 90c136 0 186 33 186 108c0 87 -50 145 -124 145c-100 0 -197 -84 -287 -253h225z" />
    <glyph glyph-name="uni0638" unicode="&#x638;" horiz-adv-x="795" 
d="M506 433c133 0 221 -100 221 -235c0 -131 -97 -198 -283 -198h-414v90h82c19 39 39 74 59 107v503h97v-378c73 73 153 111 238 111zM563 590l-71 -71l-70 71l70 71zM444 90c136 0 186 33 186 108c0 87 -50 145 -124 145c-100 0 -197 -84 -287 -253h225z" />
    <glyph glyph-name="uni0639" unicode="&#x639;" horiz-adv-x="571" 
d="M558 -153l49 -69c-67 -53 -160 -83 -262 -83c-198 0 -315 87 -315 234c0 97 49 174 137 226c-49 38 -78 93 -78 156c0 120 90 212 206 212c98 0 177 -59 199 -151l-93 -21c-13 52 -52 82 -106 82c-62 0 -109 -51 -109 -117c0 -57 33 -97 88 -114c66 21 143 34 231 38
l5 -90c-245 -12 -383 -92 -383 -216c0 -96 75 -149 218 -149c87 0 159 25 213 62z" />
    <glyph glyph-name="uni0639.cut" horiz-adv-x="571" 
d="M520 -181l36 -80c-60 -27 -133 -44 -211 -44c-198 0 -315 87 -315 234c0 97 49 174 137 226c-49 38 -78 93 -78 156c0 120 90 212 206 212c98 0 177 -59 199 -151l-93 -21c-13 52 -52 82 -106 82c-62 0 -109 -51 -109 -117c0 -57 33 -97 88 -114c66 21 143 34 231 38
l5 -90c-245 -12 -383 -92 -383 -216c0 -96 75 -149 218 -149c62 0 123 13 175 34z" />
    <glyph glyph-name="uni063A" unicode="&#x63a;" horiz-adv-x="571" 
d="M367 680l-71 -71l-71 71l71 71zM558 -153l49 -69c-67 -53 -160 -83 -262 -83c-198 0 -315 87 -315 234c0 97 49 174 137 226c-49 38 -78 93 -78 156c0 120 90 212 206 212c98 0 177 -59 199 -151l-93 -21c-13 52 -52 82 -106 82c-62 0 -109 -51 -109 -117
c0 -57 33 -97 88 -114c66 21 143 34 231 38l5 -90c-245 -12 -383 -92 -383 -216c0 -96 75 -149 218 -149c87 0 159 25 213 62z" />
    <glyph glyph-name="uni063A.cut" horiz-adv-x="571" 
d="M367 680l-71 -71l-71 71l71 71zM520 -181l36 -80c-60 -27 -133 -44 -211 -44c-198 0 -315 87 -315 234c0 97 49 174 137 226c-49 38 -78 93 -78 156c0 120 90 212 206 212c98 0 177 -59 199 -151l-93 -21c-13 52 -52 82 -106 82c-62 0 -109 -51 -109 -117
c0 -57 33 -97 88 -114c66 21 143 34 231 38l5 -90c-245 -12 -383 -92 -383 -216c0 -96 75 -149 218 -149c62 0 123 13 175 34z" />
    <glyph glyph-name="uni0641" unicode="&#x641;" horiz-adv-x="940" 
d="M738 668l-71 -71l-70 71l70 71zM666 511c134 0 206 -110 206 -282c0 -173 -68 -229 -268 -229h-233c-229 0 -341 70 -341 221c0 37 7 78 20 123l92 -23c-10 -37 -15 -70 -15 -100c0 -93 64 -131 244 -131h233c109 0 151 14 165 61c-24 -6 -50 -11 -81 -11
c-134 0 -212 51 -212 167c0 114 81 204 190 204zM573 307c0 -52 35 -84 115 -84c32 0 55 3 87 11c-5 129 -42 187 -109 187c-54 0 -93 -49 -93 -114z" />
    <glyph glyph-name="uni06A4" unicode="&#x6a4;" horiz-adv-x="940" 
d="M738 792l-70 -70l-71 70l71 73zM668 662l-63 -63l-71 71l71 72l63 -64l63 64l70 -72l-70 -71zM666 511c134 0 206 -110 206 -282c0 -173 -68 -229 -268 -229h-233c-229 0 -341 70 -341 221c0 37 7 78 20 123l92 -23c-10 -37 -15 -70 -15 -100c0 -93 64 -131 244 -131h233
c109 0 151 14 165 61c-24 -6 -50 -11 -81 -11c-134 0 -212 51 -212 167c0 114 81 204 190 204zM573 307c0 -52 35 -84 115 -84c32 0 55 3 87 11c-5 129 -42 187 -109 187c-54 0 -93 -49 -93 -114z" />
    <glyph glyph-name="uni06A1" unicode="&#x6a1;" horiz-adv-x="940" 
d="M666 511c134 0 206 -110 206 -282c0 -173 -68 -229 -268 -229h-233c-229 0 -341 70 -341 221c0 37 7 78 20 123l92 -23c-10 -37 -15 -70 -15 -100c0 -93 64 -131 244 -131h233c109 0 151 14 165 61c-24 -6 -50 -11 -81 -11c-134 0 -212 51 -212 167c0 114 81 204 190 204
zM573 307c0 -52 35 -84 115 -84c32 0 55 3 87 11c-5 129 -42 187 -109 187c-54 0 -93 -49 -93 -114z" />
    <glyph glyph-name="uni066F" unicode="&#x66f;" horiz-adv-x="770" 
d="M490 433c137 0 212 -116 212 -318c0 -207 -120 -319 -336 -319c-213 0 -336 103 -336 284c0 69 18 150 54 234l87 -33c-28 -73 -44 -141 -44 -201c0 -130 78 -194 239 -194c128 0 203 45 229 140c-26 -4 -54 -7 -89 -7c-134 0 -214 75 -214 197c0 124 84 217 198 217z
M389 216c0 -72 36 -107 117 -107c40 0 65 3 99 12c-1 146 -42 222 -115 222c-58 0 -101 -53 -101 -127z" />
    <glyph glyph-name="uni0642" unicode="&#x642;" horiz-adv-x="770" 
d="M492 584l-63 -63l-71 71l71 71l63 -63l63 63l70 -71l-70 -71zM490 433c137 0 212 -116 212 -318c0 -207 -120 -319 -336 -319c-213 0 -336 103 -336 284c0 69 18 150 54 234l87 -33c-28 -73 -44 -141 -44 -201c0 -130 78 -194 239 -194c128 0 203 45 229 140
c-26 -4 -54 -7 -89 -7c-134 0 -214 75 -214 197c0 124 84 217 198 217zM389 216c0 -72 36 -107 117 -107c40 0 65 3 99 12c-1 146 -42 222 -115 222c-58 0 -101 -53 -101 -127z" />
    <glyph glyph-name="uni0643" unicode="&#x643;" horiz-adv-x="873" 
d="M698 700h97v-700h-424c-229 0 -341 70 -341 221c0 37 7 78 20 123l92 -23c-10 -37 -15 -70 -15 -100c0 -93 64 -131 244 -131h327v610zM323 277l-15 56l35 7c-16 17 -26 38 -26 61c0 54 40 91 91 91c42 0 73 -20 93 -51l-41 -33c-12 16 -28 27 -49 27
c-22 0 -36 -15 -36 -37c0 -28 31 -47 88 -36l44 9v-59z" />
    <glyph glyph-name="uni06A9" unicode="&#x6a9;" horiz-adv-x="808" 
d="M630 347c92 -83 125 -133 125 -194c0 -103 -91 -153 -245 -153h-139c-229 0 -341 70 -341 221c0 37 7 78 20 123l92 -23c-10 -37 -15 -70 -15 -100c0 -93 64 -131 244 -131h139c108 0 149 22 149 63c0 30 -22 62 -93 127l-108 99v109l262 213l62 -70l-246 -198z" />
    <glyph glyph-name="uni06AF" unicode="&#x6af;" horiz-adv-x="808" 
d="M689 735l-259 -208l-41 50l257 208zM630 347c92 -83 125 -133 125 -194c0 -103 -91 -153 -245 -153h-139c-229 0 -341 70 -341 221c0 37 7 78 20 123l92 -23c-10 -37 -15 -70 -15 -100c0 -93 64 -131 244 -131h139c108 0 149 22 149 63c0 30 -22 62 -93 127l-108 99v109
l262 213l62 -70l-246 -198z" />
    <glyph glyph-name="uni0644" unicode="&#x644;" horiz-adv-x="681" 
d="M107 313l81 -45c-40 -66 -61 -136 -61 -204c0 -110 72 -178 191 -178c126 0 188 60 188 181v633h97v-633c0 -171 -106 -271 -285 -271c-171 0 -288 108 -288 268c0 82 27 169 77 249z" />
    <glyph glyph-name="uni0645" unicode="&#x645;" horiz-adv-x="667" 
d="M402 433c117 0 196 -96 196 -235c0 -118 -77 -198 -193 -198c-75 0 -136 31 -187 94c-13 -17 -28 -32 -41 -45c-39 -38 -54 -58 -54 -104v-250h-96v250c0 74 28 116 82 169c26 26 38 40 49 63l38 84c52 116 116 172 206 172zM405 90c62 0 97 39 97 108
c0 89 -40 145 -99 145c-45 0 -78 -30 -119 -120l-20 -45c41 -64 87 -88 141 -88z" />
    <glyph glyph-name="uni0646" unicode="&#x646;" horiz-adv-x="681" 
d="M335 428l-70 71l70 71l71 -71zM107 313l81 -45c-40 -66 -61 -136 -61 -204c0 -110 72 -178 191 -178c126 0 188 60 188 181v366h97v-366c0 -171 -106 -271 -285 -271c-171 0 -288 108 -288 268c0 82 27 169 77 249z" />
    <glyph glyph-name="uni06BA" unicode="&#x6ba;" horiz-adv-x="681" 
d="M107 313l81 -45c-40 -66 -61 -136 -61 -204c0 -110 72 -178 191 -178c126 0 188 60 188 181v366h97v-366c0 -171 -106 -271 -285 -271c-171 0 -288 108 -288 268c0 82 27 169 77 249z" />
    <glyph glyph-name="uni0647" unicode="&#x647;" horiz-adv-x="512" 
d="M242 -7c-130 0 -212 78 -212 201c0 127 96 239 212 239c117 0 212 -111 212 -239c0 -123 -82 -201 -212 -201zM242 83c77 0 115 42 115 115c0 81 -55 145 -115 145s-115 -65 -115 -145c0 -73 38 -115 115 -115z" />
    <glyph glyph-name="uni0629" unicode="&#x629;" horiz-adv-x="512" 
d="M244 584l-63 -63l-71 71l71 71l63 -63l63 63l70 -71l-70 -71zM242 433c117 0 212 -111 212 -239c0 -123 -82 -201 -212 -201s-212 78 -212 201c0 127 96 239 212 239zM242 83c77 0 115 42 115 115c0 81 -55 145 -115 145s-115 -65 -115 -145c0 -73 38 -115 115 -115z" />
    <glyph glyph-name="uni0648" unicode="&#x648;" horiz-adv-x="542" 
d="M262 433c139 0 211 -118 211 -327c0 -187 -110 -309 -283 -309c-50 0 -103 12 -153 33l34 83c43 -17 80 -26 119 -26c95 0 159 52 180 146c-27 -6 -58 -10 -99 -10c-127 0 -207 75 -207 197c0 120 84 213 198 213zM160 220c0 -71 40 -107 111 -107c46 0 72 3 106 12
c-3 144 -44 218 -115 218c-59 0 -102 -53 -102 -123z" />
    <glyph glyph-name="uni0624" unicode="&#x624;" horiz-adv-x="542" 
d="M152 502l-15 56l35 7c-17 17 -27 38 -27 61c0 54 41 91 92 91c42 0 73 -20 93 -51l-41 -33c-13 16 -28 27 -49 27c-22 0 -37 -15 -37 -37c0 -28 31 -47 89 -36l44 9v-59zM262 433c139 0 211 -118 211 -327c0 -187 -110 -309 -283 -309c-50 0 -103 12 -153 33l34 83
c43 -17 80 -26 119 -26c95 0 159 52 180 146c-27 -6 -58 -10 -99 -10c-127 0 -207 75 -207 197c0 120 84 213 198 213zM160 220c0 -71 40 -107 111 -107c46 0 72 3 106 12c-3 144 -44 218 -115 218c-59 0 -102 -53 -102 -123z" />
    <glyph glyph-name="uni0649" unicode="&#x649;" horiz-adv-x="755" 
d="M84 298l87 -33c-29 -74 -44 -138 -44 -195c0 -126 68 -185 196 -185c130 0 260 70 260 140c0 28 -14 40 -60 48l-79 15c-105 20 -159 59 -159 150c0 113 106 215 224 215c87 0 160 -60 180 -151l-95 -19c-11 51 -46 80 -86 80c-65 0 -126 -62 -126 -125
c0 -32 18 -50 80 -61l79 -15c90 -17 139 -61 139 -137c0 -125 -173 -230 -357 -230c-187 0 -293 99 -293 275c0 67 18 144 54 228z" />
    <glyph glyph-name="uni064A" unicode="&#x64a;" horiz-adv-x="755" 
d="M541 162c90 -17 139 -61 139 -137c0 -125 -173 -230 -357 -230c-187 0 -293 99 -293 275c0 67 18 144 54 228l87 -33c-29 -74 -44 -138 -44 -195c0 -126 68 -185 196 -185c130 0 260 70 260 140c0 28 -14 40 -60 48l-79 15c-105 20 -159 59 -159 150
c0 113 106 215 224 215c87 0 160 -60 180 -151l-95 -19c-11 51 -46 80 -86 80c-65 0 -126 -62 -126 -125c0 -32 18 -50 80 -61zM322 -326l66 66l72 -74l-73 -74l-65 66l-65 -66l-73 74l74 74z" />
    <glyph glyph-name="uni0626" unicode="&#x626;" horiz-adv-x="755" 
d="M78 393l-15 56l35 7c-16 17 -26 38 -26 61c0 54 40 91 91 91c42 0 73 -20 93 -51l-41 -33c-12 16 -28 27 -49 27c-22 0 -36 -15 -36 -37c0 -28 31 -47 88 -36l44 9v-59zM541 162c90 -17 139 -61 139 -137c0 -125 -173 -230 -357 -230c-187 0 -293 99 -293 275
c0 67 18 144 54 228l87 -33c-29 -74 -44 -138 -44 -195c0 -126 68 -185 196 -185c130 0 260 70 260 140c0 28 -14 40 -60 48l-79 15c-105 20 -159 59 -159 150c0 113 106 215 224 215c87 0 160 -60 180 -151l-95 -19c-11 51 -46 80 -86 80c-65 0 -126 -62 -126 -125
c0 -32 18 -50 80 -61z" />
    <glyph glyph-name="uni0640" unicode="&#x640;" horiz-adv-x="50" 
d="M50 90v-90h-50c-11 0 -15 15 -15 45s4 45 15 45h50z" />
    <glyph glyph-name="uni066B" unicode="&#x66b;" horiz-adv-x="233" 
d="M37 -148l-26 39c44 24 94 68 94 98c0 14 -8 27 -19 37l-39 40l83 84l40 -38c21 -20 30 -43 30 -67c0 -66 -59 -140 -163 -193z" />
    <glyph glyph-name="uni066C" unicode="&#x66c;" horiz-adv-x="211" 
d="M45 -104l-19 27c31 17 66 48 66 69c0 10 -5 19 -13 26l-27 28l58 59l28 -27c14 -13 21 -29 21 -47c0 -46 -41 -98 -114 -135z" />
    <glyph glyph-name="uni0660" unicode="&#x660;" horiz-adv-x="293" 
d="M146 127l-79 80l80 80l79 -80z" />
    <glyph glyph-name="uni0661" unicode="&#x661;" horiz-adv-x="274" 
d="M109 -2l-41 629l97 7l41 -629z" />
    <glyph glyph-name="uni0662" unicode="&#x662;" horiz-adv-x="442" 
d="M419 629v-90h-139c-89 0 -121 -39 -114 -150l25 -386l-97 -6l-25 386c-10 166 59 246 211 246h139z" />
    <glyph glyph-name="uni0663" unicode="&#x663;" horiz-adv-x="554" 
d="M522 641c13 -48 18 -82 18 -118c0 -101 -42 -157 -125 -157c-41 0 -73 15 -95 41c-20 -26 -48 -40 -84 -40c-19 0 -38 4 -54 12l25 -376l-97 -6l-42 629l97 6l4 -65c8 -84 26 -110 57 -110s50 29 43 132l90 4l4 -83c2 -37 19 -54 44 -54c26 0 37 20 37 67
c0 23 -6 58 -16 94z" />
    <glyph glyph-name="uni0664" unicode="&#x664;" horiz-adv-x="485" 
d="M445 100l17 -87c-43 -11 -107 -17 -150 -17c-142 0 -239 57 -239 159c0 66 37 124 101 168c-52 27 -86 71 -86 129c0 117 107 190 271 184l-3 -90c-112 4 -171 -33 -171 -91c0 -38 36 -70 89 -82c30 11 62 20 97 26l18 -88c-136 -25 -219 -87 -219 -154
c0 -49 47 -71 142 -71c38 0 94 5 133 14z" />
    <glyph glyph-name="uni0665" unicode="&#x665;" horiz-adv-x="569" 
d="M284 0c-139 0 -231 90 -231 233c0 159 106 291 231 291s232 -133 232 -291c0 -143 -92 -233 -232 -233zM284 90c87 0 135 49 135 143c0 109 -60 201 -135 201s-134 -92 -134 -201c0 -94 48 -143 134 -143z" />
    <glyph glyph-name="uni0666" unicode="&#x666;" horiz-adv-x="465" 
d="M18 539v90h123c150 0 213 -55 222 -181l29 -445l-97 -6l-29 437c-5 72 -40 105 -129 105h-119z" />
    <glyph glyph-name="uni0667" unicode="&#x667;" horiz-adv-x="568" 
d="M432 643l92 -28l-213 -615h-75l-213 615l92 28l159 -513z" />
    <glyph glyph-name="uni0668" unicode="&#x668;" horiz-adv-x="548" 
d="M524 14l-92 -28l-158 513l-159 -513l-92 28l213 615h75z" />
    <glyph glyph-name="uni0669" unicode="&#x669;" horiz-adv-x="549" 
d="M496 5l-97 -10l-26 248c-34 -13 -71 -21 -110 -21c-125 0 -210 77 -210 199c0 124 84 218 204 218c109 0 180 -76 193 -208zM268 312c35 0 64 7 95 25l-9 85c-8 78 -40 127 -101 127c-60 0 -103 -53 -103 -128c0 -70 45 -109 118 -109z" />
    <glyph glyph-name="uni060C" unicode="&#x60c;" horiz-adv-x="220" 
d="M104 -13l-40 38c-21 19 -31 42 -31 67c0 52 42 111 117 153l26 -39c-35 -20 -47 -40 -47 -58c0 -14 8 -27 18 -38l40 -39z" />
    <glyph glyph-name="uni061B" unicode="&#x61b;" horiz-adv-x="234" 
d="M117 256l-40 38c-21 19 -30 43 -30 68c0 51 42 111 116 153l27 -39c-35 -20 -48 -41 -48 -58c0 -14 8 -28 19 -38l39 -40zM115 -16l-82 83l84 83l82 -83z" />
    <glyph glyph-name="uni061F" unicode="&#x61f;" horiz-adv-x="512" 
d="M308 196h-96c0 76 -14 101 -73 147c-64 50 -100 92 -100 168c0 111 90 189 217 189c125 0 213 -75 213 -183c0 -25 -6 -54 -16 -77l-88 36c5 12 7 26 7 41c0 57 -44 93 -116 93c-73 0 -121 -41 -121 -99c0 -43 20 -63 62 -96c85 -65 111 -114 111 -219zM251 -17l-78 79
l79 79l79 -78z" />
    <glyph glyph-name="uni066D" unicode="&#x66d;" horiz-adv-x="416" 
d="M164 380l19 110l-86 -71l-48 82l105 39l-105 39l48 82l86 -71l-19 110h95l-18 -110l86 71l47 -82l-105 -39l105 -39l-47 -82l-86 71l18 -110h-95z" />
    <glyph glyph-name="uniFD3E" unicode="&#xfd3e;" horiz-adv-x="365" 
d="M207 370l-53 53l-49 -49c14 134 56 245 103 326h90c-46 -83 -80 -204 -91 -330zM153 188l-88 87l89 88l87 -87zM208 -148c-47 81 -88 192 -103 323l48 -47l54 54c11 -126 45 -246 91 -330h-90z" />
    <glyph glyph-name="uniFD3F" unicode="&#xfd3f;" horiz-adv-x="363" 
d="M158 370c-10 126 -45 246 -91 330h90c47 -81 89 -192 103 -323l-48 47zM212 189l-87 87l87 88l88 -87zM67 -148c46 83 80 204 91 330l53 -53l49 49c-14 -134 -56 -245 -103 -326h-90z" />
    <glyph glyph-name="uni066A" unicode="&#x66a;" horiz-adv-x="644" 
d="M145 -32l-62 42l436 665l62 -42zM147 493l-80 80l80 80l80 -80zM480 -31l-80 80l80 81l80 -81z" />
    <glyph glyph-name="dotabove-ar" unicode="&#xfbb2;" 
d="M85 519l-70 71l70 71l71 -71z" />
    <glyph glyph-name="dotbelow-ar" unicode="&#xfbb3;" 
d="M85 -197l-70 70l70 72l71 -72z" />
    <glyph glyph-name="dotcenterar" 
d="M85 -66l-65 66l65 67l66 -67z" />
    <glyph glyph-name="twodotshorizontalabove-ar" unicode="&#xfbb4;" 
d="M274 592l-70 -71l-63 63l-63 -63l-71 71l71 71l63 -63l63 63z" />
    <glyph glyph-name="twodotshorizontalbelow-ar" unicode="&#xfbb5;" 
d="M283 -129l-73 -74l-65 66l-65 -66l-73 74l74 74l64 -66l66 66z" />
    <glyph glyph-name="threedotsdownbelow-ar" unicode="&#xfbb9;" 
d="M141 -135l-63 -63l-71 71l71 72l63 -64l63 64l70 -72l-70 -71zM70 -263l71 71l70 -71l-70 -72z" />
    <glyph glyph-name="threedotsupabove-ar" unicode="&#xfbb6;" 
d="M211 714l-70 -70l-71 70l71 73zM274 592l-70 -71l-63 63l-63 -63l-71 71l71 72l63 -64l63 64z" />
    <glyph glyph-name="threedotsupbelow-ar" unicode="&#xfbb7;" 
d="M112 352l-52 -52l-56 56l56 57l52 -53l53 53l55 -57l-55 -56zM57 248l56 57l56 -57l-57 -56z" />
    <glyph glyph-name="waslaar" 
d="M167 699c40 0 69 -29 69 -69c0 -55 -47 -84 -130 -83c-30 1 -58 3 -86 6l5 47c11 -1 22 -3 34 -4c27 66 65 103 108 103zM108 594c58 0 81 13 81 36c0 14 -8 22 -22 22c-19 0 -40 -20 -59 -58z" />
    <glyph glyph-name="gafsarkashabovear" 
d="M31 527l-41 50l257 208l43 -50z" />
    <glyph glyph-name="uni0670" unicode="&#x670;" 
d="M21 545l-1 161h45l-2 -161h-42z" />
    <glyph glyph-name="uni0656" unicode="&#x656;" 
d="M21 -209l-1 161h45l-2 -161h-42z" />
    <glyph glyph-name="uni0654" unicode="&#x654;" 
d="M157 600l39 8v-54l-162 -31l-14 52l30 6c-14 14 -23 34 -23 53c0 48 35 81 82 81c37 0 64 -18 81 -45l-35 -29c-11 14 -25 23 -44 23c-18 0 -32 -14 -32 -33c0 -24 28 -41 78 -31z" />
    <glyph glyph-name="uni0655" unicode="&#x655;" 
d="M157 -169l39 7v-53l-163 -32l-14 52l31 6c-15 14 -24 33 -24 53c0 48 35 82 82 82c37 0 65 -18 82 -46l-36 -29c-11 14 -25 23 -43 23c-19 0 -32 -13 -32 -33c0 -24 27 -41 78 -30z" />
    <glyph glyph-name="uni0654064F" 
d="M176 856c0 -62 -51 -103 -127 -103c-7 0 -16 0 -26 1l4 37c8 -1 15 -1 22 -1c24 0 44 5 59 13c-34 8 -54 30 -54 60c0 34 26 62 59 62c40 0 63 -28 63 -69zM90 863c0 -16 14 -28 45 -31c3 8 5 15 5 24c0 21 -10 32 -26 32c-14 0 -24 -11 -24 -25zM161 600l39 8v-54
l-163 -31l-14 52l31 6c-15 14 -24 33 -24 53c0 48 35 81 82 81c37 0 65 -18 82 -45l-36 -29c-11 14 -25 23 -43 23c-19 0 -32 -14 -32 -33c0 -24 27 -41 78 -31z" />
    <glyph glyph-name="uni0654064C" 
d="M73 791c9 5 15 14 15 25c0 8 -5 13 -14 13c-10 0 -19 -4 -31 -14l-24 27c19 16 37 24 56 24c31 0 50 -20 50 -49c0 -8 -2 -16 -5 -24h12c22 0 41 4 56 12c-32 10 -51 32 -51 61c0 34 26 62 59 62c38 0 64 -28 64 -69c0 -62 -52 -103 -128 -103c-7 0 -18 0 -42 2zM174 866
c0 -16 16 -27 44 -30c3 7 5 15 5 23c0 21 -10 32 -27 32c-13 0 -22 -11 -22 -25zM228 600l39 8v-54l-163 -31l-14 52l31 6c-15 14 -24 33 -24 53c0 48 35 81 82 81c37 0 65 -18 82 -45l-36 -29c-11 14 -25 23 -43 23c-19 0 -32 -14 -32 -33c0 -24 27 -41 78 -31z" />
    <glyph glyph-name="uni0654064E" 
d="M214 823l7 -36l-194 -35l-8 37zM190 600l39 8v-54l-163 -31l-13 52l30 6c-15 14 -24 33 -24 53c0 48 35 81 83 81c37 0 64 -18 81 -45l-35 -29c-11 14 -25 23 -44 23s-32 -14 -32 -33c0 -24 27 -41 78 -31z" />
    <glyph glyph-name="uni0654064B" 
d="M217 889l8 -36l-195 -35l-7 37zM229 823l7 -37l-194 -34l-8 36zM202 600l39 8v-54l-163 -31l-14 52l31 6c-15 14 -24 33 -24 53c0 48 35 81 82 81c37 0 65 -18 82 -45l-36 -29c-11 14 -25 23 -43 23c-19 0 -32 -14 -32 -33c0 -24 27 -41 78 -31z" />
    <glyph glyph-name="uni06540652" 
d="M96 756c-38 0 -67 31 -67 69s29 68 67 68c37 0 67 -30 67 -68s-29 -69 -67 -69zM96 856c-17 0 -31 -13 -31 -31c0 -19 14 -31 31 -31s30 12 30 31c0 18 -13 31 -30 31zM157 600l39 8v-54l-162 -31l-14 52l30 6c-14 14 -23 34 -23 53c0 48 35 81 82 81c37 0 64 -18 81 -45
l-35 -29c-11 14 -25 23 -44 23c-18 0 -32 -14 -32 -33c0 -24 28 -41 78 -31z" />
    <glyph glyph-name="uni06550650" 
d="M33 -247l-14 52l31 6c-15 14 -24 33 -24 53c0 48 35 82 82 82c37 0 65 -18 82 -46l-36 -29c-11 14 -25 23 -43 23c-19 0 -32 -13 -32 -33c0 -24 27 -41 78 -30l39 7v-53zM201 -275l8 -37l-195 -34l-7 36z" />
    <glyph glyph-name="uni0655064D" 
d="M33 -247l-14 52l31 6c-15 14 -24 33 -24 53c0 48 35 82 82 82c37 0 65 -18 82 -46l-36 -29c-11 14 -25 23 -43 23c-19 0 -32 -13 -32 -33c0 -24 27 -41 78 -30l39 7v-53zM201 -275l8 -37l-195 -34l-7 36zM213 -365l7 -37l-194 -34l-8 36z" />
    <glyph glyph-name="uni064B" unicode="&#x64b;" 
d="M203 679l8 -36l-195 -35l-7 37zM214 612l8 -36l-195 -35l-7 37z" />
    <glyph glyph-name="uni064C" unicode="&#x64c;" 
d="M197 717c38 0 63 -28 63 -69c0 -62 -51 -103 -127 -103c-7 0 -18 0 -42 2l-17 33c9 5 15 14 15 25c0 8 -6 13 -15 13s-19 -4 -31 -14l-23 27c19 16 37 24 55 24c32 0 51 -20 51 -49c0 -8 -2 -16 -5 -24h12c22 0 41 4 56 12c-32 10 -51 32 -51 61c0 34 26 62 59 62z
M174 655c0 -16 16 -27 45 -30c3 7 5 15 5 23c0 21 -10 32 -27 32c-13 0 -23 -11 -23 -25z" />
    <glyph glyph-name="uni064D" unicode="&#x64d;" 
d="M214 -65l8 -37l-195 -34l-7 36zM226 -155l7 -37l-194 -34l-8 36z" />
    <glyph glyph-name="uni064E" unicode="&#x64e;" 
d="M214 612l8 -36l-195 -35l-7 37z" />
    <glyph glyph-name="uni064F" unicode="&#x64f;" 
d="M110 716c40 0 63 -28 63 -68c0 -62 -51 -104 -127 -104c-7 0 -16 0 -26 1l4 37c8 -1 15 -1 22 -1c24 0 43 5 58 13c-33 9 -53 31 -53 61c0 34 26 61 59 61zM87 655c0 -16 14 -29 45 -31c3 7 5 15 5 24c0 20 -10 31 -26 31c-14 0 -24 -10 -24 -24z" />
    <glyph glyph-name="uni0650" unicode="&#x650;" 
d="M214 -65l8 -37l-195 -34l-7 36z" />
    <glyph glyph-name="uni0651" unicode="&#x651;" 
d="M212 688c18 -22 29 -51 29 -77c0 -38 -28 -66 -66 -66c-19 0 -36 7 -47 19c-11 -13 -27 -19 -47 -19c-38 0 -61 23 -61 61c0 22 9 48 24 68l30 -17c-10 -16 -17 -35 -17 -51c0 -14 9 -24 25 -24c23 0 32 17 32 72h37c0 -23 -2 -43 -7 -58c8 -11 18 -14 31 -14
c17 0 29 11 29 29s-7 38 -21 56z" />
    <glyph glyph-name="uni0652" unicode="&#x652;" 
d="M87 545c-38 0 -67 31 -67 69s29 68 67 68s67 -30 67 -68s-29 -69 -67 -69zM87 583c17 0 30 12 30 31c0 18 -13 31 -30 31c-16 0 -30 -13 -30 -31c0 -19 14 -31 30 -31z" />
    <glyph glyph-name="uni0653" unicode="&#x653;" 
d="M273 618l40 -23c-20 -34 -46 -51 -80 -51c-49 0 -101 40 -127 40c-16 0 -31 -12 -43 -33l-43 23c19 37 51 60 86 60c48 0 89 -40 127 -40c18 0 29 9 40 24z" />
    <glyph glyph-name="uni06510670" 
d="M151 711h-42l-2 161h46zM212 688c18 -22 29 -51 29 -77c0 -38 -28 -66 -66 -66c-19 0 -36 7 -47 19c-11 -13 -27 -19 -47 -19c-38 0 -61 23 -61 61c0 22 9 48 24 68l30 -17c-10 -16 -17 -35 -17 -51c0 -14 9 -24 25 -24c23 0 32 17 32 72h37c0 -23 -2 -43 -7 -58
c8 -11 18 -14 31 -14c17 0 29 11 29 29s-7 38 -21 56z" />
    <glyph glyph-name="uni0651064F" 
d="M210 811c0 -62 -51 -103 -127 -103c-7 0 -16 0 -26 1l4 37c8 -1 15 -1 22 -1c24 0 44 5 59 13c-34 8 -54 30 -54 60c0 34 26 62 59 62c40 0 63 -28 63 -69zM124 818c0 -16 14 -28 45 -31c3 8 5 15 5 24c0 21 -10 32 -26 32c-14 0 -24 -11 -24 -25zM212 688
c18 -22 29 -51 29 -77c0 -38 -28 -66 -66 -66c-19 0 -36 7 -47 19c-11 -13 -27 -19 -47 -19c-38 0 -61 23 -61 61c0 22 9 48 24 68l30 -17c-10 -16 -17 -35 -17 -51c0 -14 9 -24 25 -24c23 0 32 17 32 72h37c0 -23 -2 -43 -7 -58c8 -11 18 -14 31 -14c17 0 29 11 29 29
s-7 38 -21 56z" />
    <glyph glyph-name="uni0651064C" 
d="M64 771c0 8 -6 13 -15 13s-19 -4 -31 -14l-23 27c18 16 36 24 55 24c31 0 50 -20 50 -49c0 -8 -2 -16 -5 -24h13c22 0 41 4 56 12c-33 10 -52 32 -52 61c0 34 27 62 60 62c38 0 63 -28 63 -69c0 -62 -51 -103 -127 -103c-7 0 -18 0 -43 2l-16 33c8 5 15 14 15 25z
M149 821c0 -15 16 -27 45 -30c3 7 4 15 4 23c0 21 -9 32 -26 32c-13 0 -23 -11 -23 -25zM226 688c17 -22 28 -51 28 -77c0 -38 -27 -66 -65 -66c-20 0 -36 7 -47 19c-11 -13 -27 -19 -47 -19c-38 0 -61 23 -61 61c0 22 9 48 24 68l29 -17c-10 -16 -17 -35 -17 -51
c0 -14 10 -24 25 -24c23 0 33 17 33 72h36c0 -23 -2 -42 -6 -58c7 -11 18 -14 31 -14c17 0 29 11 29 29s-8 38 -21 56z" />
    <glyph glyph-name="uni0651064E" 
d="M224 742l-195 -35l-7 37l194 34zM212 688c18 -22 29 -51 29 -77c0 -38 -28 -66 -66 -66c-19 0 -36 7 -47 19c-11 -13 -27 -19 -47 -19c-38 0 -61 23 -61 61c0 22 9 48 24 68l30 -17c-10 -16 -17 -35 -17 -51c0 -14 9 -24 25 -24c23 0 32 17 32 72h37c0 -23 -2 -43 -7 -58
c8 -11 18 -14 31 -14c17 0 29 11 29 29s-7 38 -21 56z" />
    <glyph glyph-name="uni0651064B.1" 
d="M217 845l7 -36l-194 -35l-8 37zM41 707l-8 37l195 34l7 -36zM224 688c17 -22 28 -51 28 -77c0 -38 -27 -66 -65 -66c-19 0 -36 7 -48 19c-11 -13 -26 -19 -46 -19c-39 0 -62 23 -62 61c0 22 10 48 25 68l29 -17c-10 -16 -17 -35 -17 -51c0 -14 9 -24 25 -24
c23 0 32 17 32 72h37c0 -23 -2 -42 -6 -58c7 -11 18 -14 31 -14c17 0 28 11 28 29s-7 38 -20 56z" />
    <glyph glyph-name="uni06510650" 
d="M83 639c-38 0 -61 22 -61 61c0 22 9 47 24 68l30 -18c-10 -16 -17 -34 -17 -50c0 -14 9 -25 25 -25c23 0 32 17 32 73h37c0 -23 -2 -43 -7 -59c8 -10 18 -14 31 -14c17 0 29 12 29 30c0 17 -7 37 -21 56l29 21c18 -23 29 -51 29 -77c0 -38 -28 -66 -66 -66
c-19 0 -36 7 -47 19c-11 -13 -27 -19 -47 -19zM31 578l194 34l8 -36l-195 -35z" />
    <glyph glyph-name="uni06F0" unicode="&#x6f0;" horiz-adv-x="293" 
d="M146 127l-79 80l80 80l79 -80z" />
    <glyph glyph-name="uni06F1" unicode="&#x6f1;" horiz-adv-x="274" 
d="M109 -2l-41 629l97 7l41 -629z" />
    <glyph glyph-name="uni06F2" unicode="&#x6f2;" horiz-adv-x="442" 
d="M419 629v-90h-139c-89 0 -121 -39 -114 -150l25 -386l-97 -6l-25 386c-10 166 59 246 211 246h139z" />
    <glyph glyph-name="uni06F3" unicode="&#x6f3;" horiz-adv-x="554" 
d="M522 641c13 -48 18 -82 18 -118c0 -101 -42 -157 -125 -157c-41 0 -73 15 -95 41c-20 -26 -48 -40 -84 -40c-19 0 -38 4 -54 12l25 -376l-97 -6l-42 629l97 6l4 -65c8 -84 26 -110 57 -110s50 29 43 132l90 4l4 -83c2 -37 19 -54 44 -54c26 0 37 20 37 67
c0 23 -6 58 -16 94z" />
    <glyph glyph-name="uni06F4" unicode="&#x6f4;" horiz-adv-x="556" 
d="M543 369c-91 -59 -224 -75 -358 -42l21 -322l-97 -7l-41 629l97 7l14 -218c26 -7 51 -11 75 -14c-22 24 -34 54 -34 91c0 83 62 143 138 143c69 0 122 -43 142 -113l-84 -23c-13 34 -35 46 -58 46c-32 0 -55 -25 -55 -60c0 -39 28 -70 75 -84c46 6 87 19 121 39z" />
    <glyph glyph-name="uni06F5" unicode="&#x6f5;" horiz-adv-x="579" 
d="M291 519c126 0 235 -149 235 -317c0 -120 -56 -204 -147 -204c-39 0 -68 14 -89 39c-22 -26 -51 -39 -89 -39c-93 0 -148 84 -148 204c0 168 110 317 238 317zM381 88c32 0 48 44 48 114c0 117 -70 227 -138 227c-70 0 -141 -110 -141 -227c0 -72 19 -114 55 -114
c30 0 43 26 43 101h83v-6c0 -79 22 -95 50 -95z" />
    <glyph glyph-name="uni06F6" unicode="&#x6f6;" horiz-adv-x="464" 
d="M117 -18l-84 46c57 99 113 182 199 257c-102 17 -167 80 -167 175c0 101 75 177 176 177c83 0 152 -53 170 -129l-93 -20c-10 36 -39 59 -77 59c-46 0 -79 -36 -79 -87c0 -72 75 -115 211 -88l31 -71c-147 -103 -213 -189 -287 -319z" />
    <glyph glyph-name="uni06F7" unicode="&#x6f7;" horiz-adv-x="568" 
d="M432 643l92 -28l-213 -615h-75l-213 615l92 28l159 -513z" />
    <glyph glyph-name="uni06F8" unicode="&#x6f8;" horiz-adv-x="548" 
d="M524 14l-92 -28l-158 513l-159 -513l-92 28l213 615h75z" />
    <glyph glyph-name="uni06F9" unicode="&#x6f9;" horiz-adv-x="549" 
d="M496 5l-97 -10l-26 248c-34 -13 -71 -21 -110 -21c-125 0 -210 77 -210 199c0 124 84 218 204 218c109 0 180 -76 193 -208zM268 312c35 0 64 7 95 25l-9 85c-8 78 -40 127 -101 127c-60 0 -103 -53 -103 -128c0 -70 45 -109 118 -109z" />
    <glyph glyph-name="uni06CC" unicode="&#x6cc;" horiz-adv-x="755" 
d="M84 298l87 -33c-29 -74 -44 -138 -44 -195c0 -126 68 -185 196 -185c130 0 260 70 260 140c0 28 -14 40 -60 48l-79 15c-105 20 -159 59 -159 150c0 113 106 215 224 215c87 0 160 -60 180 -151l-95 -19c-11 51 -46 80 -86 80c-65 0 -126 -62 -126 -125
c0 -32 18 -50 80 -61l79 -15c90 -17 139 -61 139 -137c0 -125 -173 -230 -357 -230c-187 0 -293 99 -293 275c0 67 18 144 54 228z" />
    </font>
</defs>
</svg>
